<svg xmlns="http://www.w3.org/2000/svg" width="91" height="60" viewBox="0 0 91 60">
    <g fill="#FFF" fill-rule="nonzero">
        <path d="M44 21.825C44 9.771 34.178 0 22.06 0 9.942 0 1.146 9.435.12 21.446-1.447 39.773 12.55 55.118 29.542 60c-5.792-3.484-9.832-9.543-10.506-16.59.992.14 1.996.24 3.024.24C34.178 43.65 44 33.88 44 21.825zM91 21.825C91 9.771 81.179 0 69.06 0 56.943 0 48.147 9.435 47.12 21.446 45.553 39.773 59.55 55.118 76.542 60c-5.792-3.484-9.831-9.543-10.506-16.59.992.14 1.997.24 3.024.24C81.179 43.65 91 33.88 91 21.825z"/>
    </g>
</svg>
