<svg xmlns="http://www.w3.org/2000/svg" width="49" height="80" viewBox="0 0 49 80">
    <defs>
        <linearGradient id="a" x1="58.781%" x2="31.242%" y1="23.027%" y2="100%">
            <stop offset="0%" stop-color="#FFB80A"/>
            <stop offset="100%" stop-color="#F01446"/>
        </linearGradient>
    </defs>
    <path fill="url(#a)" fill-rule="evenodd" d="M177.487 72.267h-2.09c-.008-.163-.012-.327-.02-.49l-.032-.667c-.127-2.28-.481-5.519-1.444-7.997 0-.002-.002-.002-.002-.003v-.005c-.296-.744-.611-1.352-.968-1.864-2.426-3.44-4.4-5.833-9.525-7.696-.005-.002-.01-.001-.016-.003a13.729 13.729 0 0 0-.495-.895 1.02 1.02 0 0 0-.137-.203.98.98 0 0 0-.155-.181l-.001-.001a1.123 1.123 0 0 0-.258-.128c-.06-.024-.116-.048-.178-.06-.768-.247-2.225-.453-2.735-.1-.171.117-.3.283-.378.471l-.037.057a16.05 16.05 0 0 0-1.046-.278 33.656 33.656 0 0 1-.066-1.898c1.645-.154 5.281-.678 8.31-2.432 1.791-1.037 3.238-2.268 5.641-5.7l.311.033c.863.098 2.307.265 3.707-.63 2.98-1.89 3.473-4.335 2.94-5.993-.39-1.21-1.473-2.436-3.398-2.898l.02-.027c.128-.18.249-.352.36-.489 1.765-2.176 2.207-9.508 2.198-10.23-.01-.643.005-1.295.019-1.949.058-2.674.119-5.44-1.32-7.907-1.255-2.152-3.18-3.23-5.072-4.074-.597-.267-1.202-.436-1.788-.6-.523-.147-1.017-.285-1.442-.476-.218-.1-.258-.117-.544-.617-4.785-8.316-14.119-6.554-21.617-5.14-3.974.749-7.728 1.456-9.786.462-.662-.319-1.21-.052-1.477.276-.257.314-1.003 1.23 2.546 6.24-1.788.823-3.568 1.897-4.753 3.93-1.439 2.467-1.379 5.233-1.32 7.907.014.654.028 1.305.019 1.95-.01.72.433 8.052 2.197 10.226.103.128.215.287.331.45-2.17.382-3.383 1.676-3.798 2.966-.534 1.658-.043 4.103 2.934 5.99 1.404.898 2.847.732 3.711.633l.315-.034c2.356 3.33 4.27 4.606 6.184 5.716 2.963 1.718 6.219 2.248 7.753 2.409.009.485-.012 1.17-.05 1.849-.325.069-.644.148-.963.237a1.049 1.049 0 0 0-.348-.43c-.511-.353-1.969-.147-2.736.1-.062.012-.118.036-.177.06a1.123 1.123 0 0 0-.258.127l-.001.001a.98.98 0 0 0-.156.182 1.02 1.02 0 0 0-.137.203c-.136.22-.3.518-.475.857-.09.008-.179.008-.267.04-5.125 1.864-7.099 4.258-9.53 7.703a8.388 8.388 0 0 0-.944 1.839c0 .002-.002.003-.003.005l-.003.01-.005.01v.005c-.97 2.46-1.326 5.703-1.454 8.007-.017.373-.017.76-.025 1.144h-2.04c-.574 0-1.04.469-1.04 1.046v5.64c0 .579.466 1.047 1.04 1.047h12.258c.179 0 .339-.057.486-.138 3.133.017 8.493.042 10.527-.002l3.59.031c1.064 0 1.804-.004 2.9-.011l3.47-.017c.147.08.307.137.486.137h12.257c.574 0 1.04-.468 1.04-1.046v-5.64c0-.578-.466-1.047-1.04-1.047zm-4.218-1.051l.032.668.019.383h-7.044c.147-3.595 2.572-6.626 5.978-7.557.649 2.099.91 4.645 1.015 6.506zM133.536 21.99c.01-.669-.005-1.346-.02-2.025-.054-2.492-.105-4.847 1.035-6.803.905-1.55 2.302-2.409 4.123-3.22a7.43 7.43 0 0 1 .789-.29 1.052 1.052 0 0 0 .52-1.625c-1.204-1.614-2.05-2.964-2.572-3.914 2.491.404 5.657-.193 9.2-.861C153.826 1.893 162 .35 166.047 7.384c.364.634.684 1.111 1.493 1.478.57.256 1.162.423 1.736.583.537.15 1.044.293 1.502.497 1.82.812 3.218 1.671 4.122 3.22 1.14 1.957 1.089 4.311 1.035 6.803-.015.68-.03 1.357-.02 2.025.017 1.328-.617 7.505-1.732 8.88-.135.167-.283.374-.437.59l-.159.222c-.11-.63-.178-1.275-.246-1.904-.243-2.272-.495-4.621-2.58-6.485-3.051-2.731-4.47-7.529-3.299-11.16a1.05 1.05 0 0 0-.382-1.172 1.034 1.034 0 0 0-1.225.008c-3.264 2.434-9.442 2.873-11.99 2.95-.06.004-6.002.402-10.108-2.079a1.035 1.035 0 0 0-1.14.046 1.05 1.05 0 0 0-.411 1.07c.747 3.5-.73 7.846-3.513 10.337-2.086 1.863-2.338 4.213-2.581 6.485-.068.629-.137 1.274-.247 1.904l-.158-.221a12.777 12.777 0 0 0-.44-.594c-1.113-1.373-1.747-7.549-1.73-8.876zm10.833 24.105c-1.823-1.057-3.513-2.193-5.723-5.396-.507-.729-1.361-.63-2.048-.551-.738.085-1.577.181-2.364-.323-1.625-1.03-2.437-2.434-2.069-3.577.357-1.109 1.766-1.751 3.591-1.63a.989.989 0 0 0 .792-.296c.946-.275 1.19-1.405 1.27-1.789.18-.863.271-1.711.359-2.531.22-2.05.41-3.818 1.896-5.147 2.842-2.544 4.506-6.566 4.401-10.32 4.366 1.824 9.3 1.489 9.496 1.473 2.77-.084 7.455-.488 11.032-2.138-.386 4.306 1.707 8.596 4.377 10.986 1.485 1.328 1.675 3.097 1.895 5.146.088.82.178 1.668.359 2.532.054.26.187.87.563 1.32.133.466.554.808 1.047.765 1.825-.121 3.235.52 3.592 1.629.367 1.143-.445 2.547-2.073 3.58-.784.5-1.62.404-2.36.32-.688-.08-1.543-.177-2.046.553-2.305 3.335-3.598 4.464-5.18 5.379-3.507 2.031-8.171 2.213-8.218 2.214a1.04 1.04 0 0 0-.904.596c-.094.199-.38.803-.106 4.225.029.359.243.646.532.812.125.095.266.171.431.201.265.05.53.112.792.176a513.738 513.738 0 0 1-3.258 4.289 397.805 397.805 0 0 1-3.128-4.352c.284-.064.569-.126.856-.171.045-.007.08-.034.123-.046.063-.018.122-.039.18-.068a1.012 1.012 0 0 0 .512-.599c.013-.042.025-.082.034-.126.008-.04.028-.075.032-.117.272-3.422-.015-4.027-.11-4.226a1.038 1.038 0 0 0-.904-.594c-.04-.001-4.152-.16-7.671-2.2zm-8.715 25.132c.105-1.889.37-4.454 1.027-6.543a8.028 8.028 0 0 1 3.656 2.131 8.237 8.237 0 0 1 2.387 5.451h-7.104c.007-.352.019-.701.034-1.04zm7.077 6.54c-.171.001-.337.004-.506.006a98.488 98.488 0 0 0-1.068.017l-.358.006-.689.019-.293.008-.905.028c-.914.03-1.72.056-2.367.056h-3.993v-3.549H142.731v3.41zm9.246.023c-2.24.005-5.073-.007-7.167-.018V72.615c0-2.723-1.097-5.378-3.002-7.277a10.103 10.103 0 0 0-4.3-2.585c.06-.1.115-.21.178-.3 1.95-2.763 3.428-4.666 6.795-6.225a120.925 120.925 0 0 0-.895 2.016c-.438 1.093-.161 3.473-.066 4.175.048.356.274.662.598.811.325.15.702.121 1-.076 1.359-.892 2.877-1.717 3.492-1.91.65.576 2.384 2.467 3.43 3.749l-.063 12.798zm.297-16.377c-.1.13-.155.285-.186.445-1.012-1.133-2.18-2.36-2.688-2.606-.347-.172-1.02-.503-3.963 1.238-.028-.67-.01-1.248.077-1.464.333-.831 1.83-4.046 2.354-5.044.196-.036.453-.072.678-.096.582.936 1.87 2.72 4.575 6.43l-.847 1.097zm2.497 16.354c-.204.004-.45.008-.715.01l.076-15.36c3.992-5.163 5.725-7.423 6.444-8.534.232.024.505.062.71.099.524.998 2.021 4.213 2.354 5.042.081.203.106.771.078 1.466-2.945-1.743-3.617-1.411-3.958-1.241-.48.233-4.817 4.663-4.817 5.689l.013 12.83-.185-.001zm9.42-5.153V77.773l-2.93.015c-1.09.006-1.828.011-2.877.011l-1.35-.012-.012-12.562c.574-.794 2.78-3.348 3.51-3.984.607.185 2.136 1.015 3.504 1.913a1.03 1.03 0 0 0 1 .076c.324-.15.55-.455.598-.81.095-.703.372-3.083-.066-4.178-.008-.02-.364-.843-.83-1.872 3.158 1.533 4.607 3.402 6.495 6.077.068.098.132.223.198.335-4.264 1.296-7.24 5.23-7.24 9.833zm12.257 5.293h-10.18v-3.549h10.18v3.549z" transform="translate(-130)"/>
</svg>
