
<svg width="83px" height="25px" viewBox="0 0 83 25" version="1.1" xmlns="http://www.w3.org/2000/svg" xmlns:xlink="http://www.w3.org/1999/xlink">
    <!-- Generator: Sketch 51.3 (57544) - http://www.bohemiancoding.com/sketch -->
    <desc>Created with Sketch.</desc>
    <defs></defs>
    <g id="Page-1" stroke="none" stroke-width="1" fill="none" fill-rule="evenodd">
        <g id="Group-2" transform="translate(-5.000000, -17.000000)">
            <rect id="Rectangle" fill-opacity="0" fill="#FFFFFF" x="0" y="0" width="96" height="60"></rect>
            <g id="visa" transform="translate(5.000000, 17.000000)" fill-rule="nonzero">
                <polygon id="Shape" fill="#3C58BF" points="30 24 33.902439 1 40 1 36.2195122 24"></polygon>
                <polygon id="Shape" fill="#293688" points="30 24 35 1 40 1 36.2195122 24"></polygon>
                <path d="M60,1.05263158 C58.6928104,0.52631579 56.6013072,0 53.9869281,0 C47.4509804,0 42.7450981,3.28947369 42.7450981,8.02631578 C42.7450981,11.5789474 46.0130719,13.4210527 48.627451,14.6052632 C51.2418301,15.7894737 52.0261438,16.5789474 52.0261438,17.631579 C52.0261438,19.2105263 49.9346405,20 48.1045752,20 C45.4901961,20 44.0522876,19.6052632 41.8300654,18.6842106 L40.9150327,18.2894737 L40,23.6842106 C41.5686275,24.3421053 44.4444445,25 47.4509804,25 C54.379085,25 58.9542483,21.7105263 58.9542483,16.7105263 C58.9542483,13.9473684 57.2549019,11.8421053 53.3333333,10.131579 C50.9803922,8.94736844 49.5424837,8.28947366 49.5424837,7.10526318 C49.5424837,6.05263158 50.7189543,5 53.3333333,5 C55.5555555,5 57.124183,5.39473685 58.3006536,5.92105264 L58.9542483,6.18421053 L60,1.05263158 Z" id="Shape" fill="#3C58BF"></path>
                <path d="M60,1.05263158 C58.6928104,0.52631579 56.6013072,0 53.9869281,0 C47.4509804,0 43.9215686,3.28947369 43.9215686,8.02631578 C43.9215686,11.5789474 46.0130719,13.4210527 48.627451,14.6052632 C51.2418301,15.7894737 52.0261438,16.5789474 52.0261438,17.631579 C52.0261438,19.2105263 49.9346405,20 48.1045752,20 C45.4901961,20 44.0522876,19.6052632 41.8300654,18.6842106 L40.9150327,18.2894737 L40,23.6842106 C41.5686275,24.3421053 44.4444445,25 47.4509804,25 C54.379085,25 58.9542483,21.7105263 58.9542483,16.7105263 C58.9542483,13.9473684 57.2549019,11.8421053 53.3333333,10.131579 C50.9803922,8.94736844 49.5424837,8.28947366 49.5424837,7.10526318 C49.5424837,6.05263158 50.7189543,5 53.3333333,5 C55.5555555,5 57.124183,5.39473685 58.3006536,5.92105264 L58.9542483,6.18421053 L60,1.05263158 Z" id="Shape" fill="#293688"></path>
                <path d="M72.3186812,1 C70.736264,1 69.5494507,1.12777778 68.8901101,2.66111111 L59,24 L66.1208789,24 L67.4395602,20.1666667 L75.879121,20.1666667 L76.6703297,24 L83,24 L77.4615383,1 L72.3186812,1 Z M69.2857141,16.3333333 C69.6813187,15.1833334 71.9230766,9.5611111 71.9230766,9.5611111 C71.9230766,9.5611111 72.4505492,8.15555553 72.8461539,7.26111112 L73.2417585,9.43333333 C73.2417585,9.43333333 74.5604398,15.1833334 74.8241758,16.4611111 L69.2857141,16.4611111 L69.2857141,16.3333333 Z" id="Shape" fill="#3C58BF"></path>
                <path d="M73.9010991,1 C72.3186812,1 71.131868,1.12777778 70.4725273,2.66111111 L59,24 L66.1208789,24 L67.4395602,20.1666667 L75.879121,20.1666667 L76.6703297,24 L83,24 L77.4615383,1 L73.9010991,1 Z M69.2857141,16.3333333 C69.8131867,15.0555556 71.9230766,9.5611111 71.9230766,9.5611111 C71.9230766,9.5611111 72.4505492,8.15555553 72.8461539,7.26111112 L73.2417585,9.43333333 C73.2417585,9.43333333 74.5604398,15.1833334 74.8241758,16.4611111 L69.2857141,16.4611111 L69.2857141,16.3333333 Z" id="Shape" fill="#293688"></path>
                <path d="M17.5833333,16.9722222 L16.9444444,13.65 C15.7944445,9.81666664 12.0888889,5.6 8,3.55555556 L13.75,24 L20.65,24 L31,1 L24.1,1 L17.5833333,16.9722222 Z" id="Shape" fill="#3C58BF"></path>
                <path d="M17.5833333,16.9722222 L16.9444444,13.65 C15.7944445,9.81666664 12.0888889,5.6 8,3.55555556 L13.75,24 L20.65,24 L31,1 L25.3777778,1 L17.5833333,16.9722222 Z" id="Shape" fill="#293688"></path>
                <path d="M0,1 L1.20895523,1.26 C9.80597018,3.21 15.7164179,8.14999997 18,14 L15.5820896,2.95 C15.1791045,1.39 13.9701493,1 12.4925373,1 L0,1 Z" id="Shape" fill="#FFBC00"></path>
                <path d="M0,1 C8.59701494,2.96969697 15.7164179,8.09090907 18,14 L15.7164179,4.67676767 C15.3134329,3.1010101 13.9701493,2.18181818 12.4925373,2.18181818 L0,1 Z" id="Shape" fill="#F7981D"></path>
                <path d="M0,1 C8.59701494,2.96969697 15.7164179,8.09090907 18,14 L16.3880598,8.87878789 C15.9850746,7.30303031 15.4477612,5.72727272 13.5671642,5.07070706 L0,1 Z" id="Shape" fill="#ED7C00"></path>
                <g id="Group" transform="translate(9.000000, 3.000000)" fill="#051244">
                    <path d="M16.1584856,13.1265306 L11.7279331,8.68571427 L9.64296722,13.6489796 L9.1217257,10.3836735 C7.94893244,6.46530613 4.16993176,2.15510204 0,0.0653061225 L5.86396654,20.9632653 L12.9007264,20.9632653 L16.1584856,13.1265306 Z" id="Shape"></path>
                    <polygon id="Shape" points="28.2773498 20.9632653 22.674004 15.2163265 21.631521 20.9632653"></polygon>
                    <path d="M43.2630421,12.8653061 C43.7842835,13.3877551 44.0449042,13.7795918 43.9145939,14.3020408 C43.9145939,15.8693877 41.829628,16.6530612 40.0052829,16.6530612 C37.3990755,16.6530612 35.9656615,16.2612245 33.7503852,15.3469388 L32.8382127,14.955102 L31.9260401,20.3102041 C33.4897645,20.9632653 36.3565926,21.6163265 39.353731,21.6163265 C43.5236628,21.6163265 46.9117323,20.4408163 48.8663878,18.3510204 L43.2630421,12.8653061 Z" id="Shape"></path>
                    <path d="M50.8210433,20.9632653 L56.9456306,20.9632653 L58.2487343,17.0448979 L66.5885977,17.0448979 L67.3704598,20.9632653 L73.6253574,20.9632653 L71.4100815,11.4285714 L63.5914591,3.85306122 L63.9823905,5.94285714 C63.9823905,5.94285714 65.2854941,11.8204082 65.5461152,13.1265306 L60.0730795,13.1265306 C60.5943209,11.8204082 62.6792868,6.20408163 62.6792868,6.20408163 C62.6792868,6.20408163 63.2005284,4.76734694 63.5914591,3.85306122" id="Shape"></path>
                </g>
            </g>
        </g>
    </g>
</svg>