<svg xmlns="http://www.w3.org/2000/svg" xmlns:xlink="http://www.w3.org/1999/xlink" width="1440" height="263" viewBox="0 0 1440 263">
    <defs>
        <path id="a" d="M0 0h1440v263H0z"/>
        <path id="c" d="M0 0h1440v422H0z"/>
        <linearGradient id="g" x1="-11.977%" x2="46.443%" y1="45.404%" y2="51.374%">
            <stop offset="0%" stop-color="#4DA028"/>
            <stop offset="100%" stop-color="#8AE42A"/>
        </linearGradient>
        <path id="f" d="M-44.023 213.677c-.72-5.005-1.748-10.054-.72-15.147 7.097-36.135 124.663-42.062 190.286-35.652 58.731 5.752 110.983 22.568 140.194 45.047 18.926 14.621 31.166 32.578 65.52 40.57 37.029 8.56 85.474 1.755 123.12 9.79 58.32 12.425 74.057 51.282 157.063 42.106 18.103-2.02 34.046-6.586 50.4-10.45 33.326-7.859 70.766-13.04 108.926-12.864 38.057.175 76.731 6.103 103.165 17.782 13.269 5.84 23.04 12.908 32.812 19.933 27.977 20.152 33.943 44.96 37.234 67.922.514 3.249.823 6.717-2.468 9.66-3.395 3.029-10.183 5.048-16.869 6.76-20.983 5.357-44.949 9.923-66.857 14.533-28.903 6.06-65.417 5.225-96.377 8.21-31.475 3.03-62.949 5.445-95.452 6.894a22305.705 22305.705 0 0 1-760.011 20.855c-9.36.088-22.834-2.24-18.823-5.84 7.303-6.63 4.114-19.406 5.657-26.562 4.423-20.724 8.743-41.491 13.166-62.215l19.748-93.124c2.263-10.537 4.423-21.206 9.155-31.436 2.468-5.708 1.954-11.24 1.131-16.772z"/>
        <filter id="e" width="110.4%" height="138.1%" x="-5.2%" y="-12.1%" filterUnits="objectBoundingBox">
            <feOffset dy="20" in="SourceAlpha" result="shadowOffsetOuter1"/>
            <feGaussianBlur in="shadowOffsetOuter1" result="shadowBlurOuter1" stdDeviation="15"/>
            <feColorMatrix in="shadowBlurOuter1" values="0 0 0 0 0 0 0 0 0 0 0 0 0 0 0 0 0 0 1 0"/>
        </filter>
        <path id="h" d="M0 0h1440v434H0z"/>
        <linearGradient id="l" x1="25.329%" x2="71.981%" y1="51.67%" y2="49.131%">
            <stop offset="0%" stop-color="#FFA936"/>
            <stop offset="100%" stop-color="#FA5E35"/>
        </linearGradient>
        <path id="k" d="M1532.777 136.633c-115.293 101.504-138.441 20.317-311.472 54.416-60.423 11.907-76.71 30.14-103.042 47.088-26.332 16.948-61.2 32.56-105.84 37.857-45.772 5.435-97.2-.552-139.989 8.612-55.234 11.836-73.645 43.798-123.325 59.871-35.28 11.422-85.166 12.988-123.635 3.961-22.423-5.25-40.525-13.586-61.817-19.711-75.394-21.646-179.794-11.007-249.428 14.23-69.635 25.239-112.423 62.036-153.258 97.729 130.835 8.474 263.932 1.473 395.589-3.961 206.229-8.52 413.383-13.218 620.434-10.823 101.52 1.151 203.555 4.053 304.252-2.026 54.72-3.316 108.823-9.211 163.954-10.547l-112.423-276.696z"/>
        <filter id="j" width="107.4%" height="135.7%" x="-3.7%" y="-11.4%" filterUnits="objectBoundingBox">
            <feOffset dy="20" in="SourceAlpha" result="shadowOffsetOuter1"/>
            <feGaussianBlur in="shadowOffsetOuter1" result="shadowBlurOuter1" stdDeviation="15"/>
            <feColorMatrix in="shadowBlurOuter1" values="0 0 0 0 0 0 0 0 0 0 0 0 0 0 0 0 0 0 1 0"/>
        </filter>
        <path id="m" d="M0 0h1440v412H0z"/>
        <path id="p" d="M1124 526.772c-51.273 13.497-106.844 17.248-161.379 16.004-64.308-1.543-127.998-9.644-191.791-15.662-79.639-7.485-159.792-11.497-239.945-15.586-60.295-3.086-120.59-6.096-180.885-9.182 41.363-2.855 77.684-21.45 109.169-41.742 31.485-20.292 60.603-43.284 97.027-58.176 38.276-15.662 83.549-21.45 126.66-16.28 21.402 2.546 42.392 7.793 64 7.716 32.308-.077 62.661-11.882 88.179-26.62 25.517-14.736 47.639-32.636 72.745-47.76 60.458-36.432 138.81-55.039 216.22-53.382 77.41-1.657 155.762 16.95 216.22 53.383 25.106 15.123 47.228 33.023 72.745 47.76 25.518 14.737 55.87 26.542 88.18 26.619 21.607.077 42.597-5.17 63.998-7.716 43.112-5.17 88.385.618 126.66 16.28 36.425 14.892 65.543 37.884 97.028 58.176 31.485 20.293 67.806 38.887 109.169 41.742-60.295 3.086-120.59 6.096-180.885 9.182-80.153 4.09-160.306 8.101-239.945 15.586-63.793 6.018-127.483 14.12-191.791 15.662-54.535 1.244-110.106-2.507-161.379-16.004z"/>
        <filter id="o" width="107.1%" height="139.7%" x="-3.6%" y="-12.6%" filterUnits="objectBoundingBox">
            <feOffset dy="20" in="SourceAlpha" result="shadowOffsetOuter1"/>
            <feGaussianBlur in="shadowOffsetOuter1" result="shadowBlurOuter1" stdDeviation="15"/>
            <feColorMatrix in="shadowBlurOuter1" values="0 0 0 0 0 0 0 0 0 0 0 0 0 0 0 0 0 0 1 0"/>
        </filter>
        <path id="q" d="M0 0h1440v409H0z"/>
        <path id="t" d="M578.674 455.594c-39.497-60.891-117.154-94.525-188.537-81.565-25.92 4.731-54.926 14.297-76.834-.309-9.36-6.274-15.634-15.943-21.806-25.303-15.223-22.937-31.68-45.566-52.971-63.051-21.292-17.589-47.932-29.829-75.395-29.417-25.302.411-52.045 11.108-74.982.308-12.755-6.068-21.6-17.794-32.298-26.846-31.165-26.434-80.434-28.697-113.862-5.04-6.275 4.423-12.138 9.978-14.503 17.178-2.88 8.742-.103 18.205 2.365 27.051 16.972 59.554 23.863 121.989 20.263 183.806l628.56 3.188z"/>
        <filter id="s" width="116.9%" height="144.4%" x="-8.4%" y="-14.1%" filterUnits="objectBoundingBox">
            <feOffset dy="20" in="SourceAlpha" result="shadowOffsetOuter1"/>
            <feGaussianBlur in="shadowOffsetOuter1" result="shadowBlurOuter1" stdDeviation="15"/>
            <feColorMatrix in="shadowBlurOuter1" values="0 0 0 0 0 0 0 0 0 0 0 0 0 0 0 0 0 0 1 0"/>
        </filter>
    </defs>
    <g fill="none" fill-rule="evenodd">
        <mask id="b" fill="#fff">
            <use xlink:href="#a"/>
        </mask>
        <g mask="url(#b)">
            <g transform="translate(0 -159)">
                <mask id="d" fill="#fff">
                    <use xlink:href="#c"/>
                </mask>
                <g fill-rule="nonzero" mask="url(#d)">
                    <use fill="#000" filter="url(#e)" xlink:href="#f"/>
                    <use fill="url(#g)" xlink:href="#f"/>
                </g>
            </g>
        </g>
        <g mask="url(#b)">
            <g transform="translate(0 -171)">
                <mask id="i" fill="#fff">
                    <use xlink:href="#h"/>
                </mask>
                <g fill-rule="nonzero" mask="url(#i)">
                    <use fill="#000" filter="url(#j)" xlink:href="#k"/>
                    <use fill="url(#l)" xlink:href="#k"/>
                </g>
            </g>
        </g>
        <g mask="url(#b)">
            <g transform="translate(0 -149)">
                <mask id="n" fill="#fff">
                    <use xlink:href="#m"/>
                </mask>
                <g fill-rule="nonzero" mask="url(#n)">
                    <use fill="#000" filter="url(#o)" xlink:href="#p"/>
                    <use fill="#FFF" xlink:href="#p"/>
                </g>
            </g>
        </g>
        <g mask="url(#b)">
            <g transform="translate(0 -146)">
                <mask id="r" fill="#fff">
                    <use xlink:href="#q"/>
                </mask>
                <g fill-rule="nonzero" mask="url(#r)">
                    <use fill="#000" filter="url(#s)" xlink:href="#t"/>
                    <use fill="#FFF" xlink:href="#t"/>
                </g>
            </g>
        </g>
    </g>
</svg>
