<svg xmlns="http://www.w3.org/2000/svg" width="76" height="103" viewBox="0 0 76 103">
    <defs>
        <filter id="a" width="405.3%" height="281.2%" x="-152.6%" y="-90.6%" filterUnits="objectBoundingBox">
            <feOffset dy="10" in="SourceAlpha" result="shadowOffsetOuter1"/>
            <feGaussianBlur in="shadowOffsetOuter1" result="shadowBlurOuter1" stdDeviation="10"/>
            <feColorMatrix in="shadowBlurOuter1" result="shadowMatrixOuter1" values="0 0 0 0 0 0 0 0 0 0 0 0 0 0 0 0 0 0 0.172066215 0"/>
            <feMerge>
                <feMergeNode in="shadowMatrixOuter1"/>
                <feMergeNode in="SourceGraphic"/>
            </feMerge>
        </filter>
    </defs>
    <g fill="none" fill-rule="nonzero" filter="url(#a)" transform="translate(19 9)">
        <path fill="#FEF5F8" d="M1.208 22.697l.471-.16 11.383 34.208-.471.16zM11.07 24.308l.493-.065 4.255 32.736-.493.065zM24.436 56.744L35.823 22.54l.47.159-11.386 34.204zM21.68 56.981l4.251-32.736.493.065-4.252 32.736zM18 24h1v32h-1z"/>
        <path fill="#FFD000" d="M37.971 17.719l-.043-.682a18.404 18.404 0 0 0-.868-4.202c-.13-.412-.29-.81-.449-1.193a18.987 18.987 0 0 0-2.155-3.848c-.101-.142-.202-.284-.318-.411a19.26 19.26 0 0 0-2.966-3.053c-.13-.113-.274-.213-.405-.326a18.975 18.975 0 0 0-3.76-2.272c-.174-.07-.348-.156-.507-.227-.13-.057-.246-.1-.376-.156-.39-.156-.767-.298-1.172-.412a19.544 19.544 0 0 0-3.876-.823C20.396.043 19.716 0 19.007 0c-.361 0-.709.014-1.07.028-.232.015-.463.029-.695.057-.91.085-1.793.227-2.661.426a20.986 20.986 0 0 0-2.271.682c-.174.07-.362.127-.535.213a18.87 18.87 0 0 0-3.906 2.143c-.145.1-.29.2-.42.313a19.327 19.327 0 0 0-3.095 2.924c-.116.128-.217.27-.333.398a18.542 18.542 0 0 0-2.3 3.706c-.072.17-.159.34-.231.51a15.194 15.194 0 0 0-.694 1.917c-.102.327-.188.653-.275.994-.145.582-.26 1.164-.333 1.775-.029.213-.058.426-.087.653A16.84 16.84 0 0 0 0 18.656c0 .567.072 1.22.203 1.93.043.2.072.398.13.61.159.74.376 1.534.65 2.372.116.355.232.71.362 1.079.13.369.26.752.405 1.136.073.17.13.355.203.525a87.92 87.92 0 0 0 1.75 4.245c.072.17.145.34.232.511a118.058 118.058 0 0 0 1.808 3.862l.694 1.405a239.924 239.924 0 0 0 1.678 3.309c.087.156.174.326.246.482a142.69 142.69 0 0 0 2.097 3.905c.087.17.174.326.26.468.521.951.84 1.505.84 1.505H26.457s.477-.823 1.23-2.2l.26-.47c.578-1.078 1.302-2.413 2.083-3.918.086-.156.159-.326.246-.482l.26-.511c.246-.469.477-.952.738-1.449.332-.667.665-1.348 1.012-2.044.073-.17.16-.327.232-.497.65-1.349 1.287-2.726 1.895-4.103l.217-.511c.52-1.193.998-2.385 1.432-3.521.173-.44.318-.866.477-1.292.608-1.732 1.07-3.337 1.302-4.685a4.84 4.84 0 0 0 .087-.64A8.46 8.46 0 0 0 38 18.67c0-.327-.014-.64-.029-.951z"/>
        <path fill="#FEF5F8" d="M31.986 17.719c-.014-.228-.014-.455-.029-.682a24.944 24.944 0 0 0-.597-4.202c-.1-.412-.199-.81-.312-1.193a21.394 21.394 0 0 0-1.479-3.848c-.07-.142-.142-.284-.213-.411a18.104 18.104 0 0 0-2.033-3.053c-.085-.113-.185-.213-.284-.326-.796-.895-1.65-1.661-2.573-2.272-.114-.07-.228-.156-.356-.227-.085-.057-.17-.1-.255-.156a6.044 6.044 0 0 0-.796-.412 10.196 10.196 0 0 0-2.19-.738c-.156-.029-.298-.057-.455-.085A9.404 9.404 0 0 0 19.007 0c-.242 0-.483.014-.725.028-.156.015-.313.029-.469.057a9.698 9.698 0 0 0-1.82.426c-.227.085-.469.17-.696.27-.299.128-.583.27-.867.412-.128.07-.242.127-.37.213a12.57 12.57 0 0 0-2.672 2.143c-.1.1-.2.2-.285.313a17.321 17.321 0 0 0-2.118 2.924c-.07.128-.156.27-.227.398A21.211 21.211 0 0 0 7.18 10.89c-.057.17-.1.34-.156.51a26.976 26.976 0 0 0-.484 1.917c-.07.327-.128.653-.185.994-.1.582-.17 1.164-.227 1.775-.014.213-.043.426-.057.653A28.43 28.43 0 0 0 6 18.656c0 .567.057 1.22.142 1.93.029.2.057.398.085.61.114.74.256 1.534.441 2.372.071.355.156.71.242 1.079.085.369.185.752.284 1.136.043.17.085.355.142.525.356 1.377.768 2.797 1.194 4.245.057.17.1.34.157.511.398 1.292.81 2.598 1.236 3.862l.47 1.405c.398 1.165.781 2.272 1.151 3.309.057.156.114.326.17.482a184.048 184.048 0 0 0 1.436 3.905c.057.17.128.326.185.468.356.951.583 1.505.583 1.505H24.11s.327-.823.84-2.2l.17-.47c.398-1.078.895-2.413 1.421-3.918.057-.156.114-.326.17-.482.058-.17.115-.341.186-.511.17-.469.327-.952.497-1.449.228-.667.455-1.348.697-2.044.057-.17.113-.327.156-.497.44-1.349.881-2.726 1.294-4.103.057-.17.1-.34.156-.511.355-1.193.682-2.385.981-3.521.114-.44.227-.866.327-1.292.412-1.732.74-3.337.895-4.685.029-.213.043-.426.057-.64.029-.354.043-.695.043-1.007 0-.327-.014-.64-.014-.951z"/>
        <path fill="#FFD000" d="M24.985 17.719c0-.228-.015-.455-.015-.682a52.646 52.646 0 0 0-.299-4.202c-.045-.412-.104-.81-.15-1.193a37.133 37.133 0 0 0-.746-3.848c-.03-.142-.075-.284-.105-.411a24.956 24.956 0 0 0-1.016-3.053c-.045-.113-.09-.213-.134-.326-.389-.895-.822-1.661-1.286-2.272-.06-.07-.12-.156-.179-.227-.045-.057-.09-.1-.134-.156a3.715 3.715 0 0 0-.404-.412C20.16.61 19.8.355 19.427.199l-.225-.085A2.42 2.42 0 0 0 18.5 0c-.12 0-.24.014-.359.028-.074.015-.164.029-.239.057a3.108 3.108 0 0 0-.911.426c-.12.085-.24.17-.344.27-.15.128-.284.27-.433.412-.06.07-.12.127-.18.213-.478.567-.926 1.277-1.33 2.143-.044.1-.104.2-.149.313a22.572 22.572 0 0 0-1.06 2.924c-.046.128-.075.27-.12.398-.314 1.136-.568 2.385-.792 3.706-.03.17-.06.34-.075.51-.09.625-.164 1.264-.239 1.917l-.09.994c-.045.582-.09 1.164-.12 1.775-.014.213-.014.426-.03.653C12 17.364 12 18.017 12 18.656c0 .567.03 1.22.075 1.93l.045.61c.06.74.134 1.534.224 2.372.045.355.074.71.12 1.079l.134 1.136c.015.17.045.355.074.525.18 1.377.389 2.797.598 4.245.03.17.045.34.075.511.194 1.292.403 2.598.612 3.862.075.468.165.937.24 1.405.194 1.165.388 2.272.567 3.309l.09.482c.284 1.562.523 2.897.717 3.905.03.17.06.326.09.468L15.945 46h5.11s.165-.823.419-2.2l.09-.47c.193-1.078.447-2.413.716-3.918l.09-.482.09-.511c.09-.469.164-.952.254-1.449.12-.667.224-1.348.343-2.044.03-.17.06-.327.075-.497.224-1.349.448-2.726.643-4.103.03-.17.045-.34.074-.511.18-1.193.344-2.385.494-3.521.06-.44.104-.866.164-1.292.21-1.732.373-3.337.448-4.685.015-.213.03-.426.03-.64.015-.354.015-.695.015-1.007 0-.327 0-.64-.015-.951z"/>
        <path fill="#E06F63" d="M10.365 44.143c.088.16.175.307.263.44.525.896.846 1.417.846 1.417H26.511s.482-.775 1.24-2.071l.264-.441c.554-.962 1.24-2.152 1.985-3.488H8c.088.147.175.307.248.454a117.33 117.33 0 0 0 2.117 3.689zM24.341 64H13.66L12 55h14z"/>
        <path fill="#F69182" d="M26.293 57H11.707c-.39 0-.707-.272-.707-.605v-1.79c0-.333.317-.605.707-.605h14.586c.39 0 .707.272.707.605v1.79c0 .321-.317.605-.707.605z"/>
        <path fill="#FEF5F8" d="M15 59.246C15 58.28 14.325 56 13.5 56S12 58.28 12 59.246c0 .965.675 1.754 1.5 1.754s1.5-.79 1.5-1.754zM21 59.246C21 58.28 20.325 56 19.5 56S18 58.28 18 59.246c0 .965.675 1.754 1.5 1.754s1.5-.79 1.5-1.754zM26 59.246C26 58.28 25.325 56 24.5 56S23 58.28 23 59.246c0 .965.675 1.754 1.5 1.754s1.5-.79 1.5-1.754zM27.67 55H10.345c-.18 0-.344.217-.344.5 0 .26.15.5.344.5h17.312c.18 0 .344-.217.344-.5 0-.283-.15-.5-.33-.5z"/>
    </g>
</svg>
