<svg xmlns="http://www.w3.org/2000/svg" width="83" height="115" viewBox="0 0 83 115">
    <defs>
        <filter id="a" width="357.8%" height="254.7%" x="-128.9%" y="-77.3%" filterUnits="objectBoundingBox">
            <feOffset dy="10" in="SourceAlpha" result="shadowOffsetOuter1"/>
            <feGaussianBlur in="shadowOffsetOuter1" result="shadowBlurOuter1" stdDeviation="10"/>
            <feColorMatrix in="shadowBlurOuter1" result="shadowMatrixOuter1" values="0 0 0 0 0 0 0 0 0 0 0 0 0 0 0 0 0 0 0.172066215 0"/>
            <feMerge>
                <feMergeNode in="shadowMatrixOuter1"/>
                <feMergeNode in="SourceGraphic"/>
            </feMerge>
        </filter>
    </defs>
    <g fill="none" fill-rule="nonzero" filter="url(#a)" transform="translate(19 10)">
        <path fill="#FEF5F8" d="M1.43 26.598l.558-.187 13.48 40.087-.558.187zM13.11 28.486l.583-.076 5.04 38.363-.585.076zM28.937 66.497l13.484-40.083.559.186-13.484 40.084zM25.673 66.775l5.035-38.362.583.076-5.034 38.362zM21.711 28.618h1v37.5h-1z"/>
        <path fill="#64C200" d="M44.374 20.906l-.05-.804a21.898 21.898 0 0 0-1.015-4.958 17.334 17.334 0 0 0-.524-1.407c-.66-1.625-1.521-3.133-2.519-4.54a5.29 5.29 0 0 0-.372-.486 22.628 22.628 0 0 0-3.465-3.602c-.152-.134-.321-.25-.473-.385a22.134 22.134 0 0 0-4.395-2.68c-.203-.084-.406-.185-.592-.268-.152-.067-.287-.118-.44-.185a13.282 13.282 0 0 0-1.369-.485 22.655 22.655 0 0 0-3.753-.871C25.154.2 24.9.168 24.63.134A22.865 22.865 0 0 0 22.212 0c-.422 0-.828.017-1.25.034-.271.016-.541.033-.812.067-1.065.1-2.096.268-3.11.502a24.337 24.337 0 0 0-2.654.804c-.203.084-.423.15-.626.251a21.99 21.99 0 0 0-4.564 2.53 5.329 5.329 0 0 0-.49.369 22.678 22.678 0 0 0-3.618 3.45c-.135.151-.253.319-.389.47a21.913 21.913 0 0 0-2.687 4.372c-.085.2-.186.402-.27.603a18.04 18.04 0 0 0-.812 2.261c-.119.386-.22.77-.321 1.173a16.963 16.963 0 0 0-.39 2.094 92.09 92.09 0 0 0-.1.77A20.06 20.06 0 0 0 0 22.013c0 .67.085 1.44.237 2.278.05.235.084.47.152.72.186.872.44 1.81.76 2.798.136.419.271.838.423 1.273.152.436.304.888.473 1.34.085.202.153.42.237.62.609 1.625 1.302 3.3 2.046 5.01.084.2.169.401.27.602a139.922 139.922 0 0 0 2.113 4.557l.811 1.658c.677 1.374 1.336 2.68 1.961 3.903.102.185.203.386.288.57a168.9 168.9 0 0 0 2.45 4.607c.102.2.204.385.305.553.609 1.122.98 1.775.98 1.775h17.412s.558-.971 1.437-2.596l.304-.553c.677-1.273 1.522-2.848 2.435-4.624.101-.184.186-.385.287-.57l.304-.602c.288-.553.558-1.123.862-1.709.39-.787.778-1.591 1.184-2.412.084-.201.186-.385.27-.587.76-1.591 1.505-3.216 2.215-4.84l.253-.604a96.836 96.836 0 0 0 1.674-4.154c.203-.52.372-1.022.558-1.525.71-2.044 1.25-3.937 1.52-5.528.052-.251.085-.503.102-.754.051-.419.085-.82.085-1.19 0-.384-.017-.753-.034-1.122z"/>
        <path fill="#FEF5F8" d="M37.483 20.906c-.016-.268-.016-.536-.033-.804a29.509 29.509 0 0 0-.703-4.958 28.596 28.596 0 0 0-.368-1.407 25.286 25.286 0 0 0-1.99-5.026 21.366 21.366 0 0 0-2.392-3.602c-.1-.134-.217-.25-.334-.385-.937-1.055-1.94-1.96-3.028-2.68-.134-.084-.267-.185-.418-.268-.1-.067-.2-.118-.301-.185a7.104 7.104 0 0 0-.937-.485 11.973 11.973 0 0 0-2.576-.871l-.535-.101A11.035 11.035 0 0 0 22.212 0c-.284 0-.568.017-.853.034-.184.016-.368.033-.552.067-.736.1-1.455.268-2.14.502-.268.1-.553.201-.82.318-.351.151-.686.319-1.02.486-.151.084-.285.15-.435.251a14.797 14.797 0 0 0-3.145 2.53 3.497 3.497 0 0 0-.334.369 20.436 20.436 0 0 0-2.493 3.45c-.083.151-.184.319-.267.47a25.065 25.065 0 0 0-1.857 4.372c-.067.2-.117.402-.184.603-.217.737-.401 1.49-.569 2.261-.083.386-.15.77-.217 1.173-.117.687-.2 1.374-.268 2.094-.016.251-.05.503-.066.77-.05.738-.084 1.508-.084 2.262 0 .67.067 1.44.167 2.278.034.235.067.47.1.72.134.872.302 1.81.519 2.798.084.419.184.838.284 1.273.1.436.218.888.335 1.34.05.202.1.42.167.62.418 1.625.903 3.3 1.405 5.01.067.2.117.401.184.602.468 1.525.954 3.066 1.455 4.557l.552 1.658c.469 1.374.92 2.68 1.355 3.903.067.185.134.386.2.57a217.553 217.553 0 0 0 1.69 4.607c.067.2.15.385.218.553.418 1.122.685 1.775.685 1.775H28.217s.385-.971.987-2.596l.2-.553c.469-1.273 1.054-2.848 1.673-4.624.067-.184.134-.385.2-.57.068-.2.135-.401.218-.602.201-.553.385-1.123.586-1.709.267-.787.535-1.591.82-2.412.066-.201.133-.385.183-.587a204.602 204.602 0 0 0 1.522-4.84c.067-.202.117-.403.184-.604.419-1.407.803-2.814 1.154-4.154.134-.52.268-1.022.385-1.525.485-2.044.87-3.937 1.054-5.528.033-.251.05-.503.067-.754.033-.419.05-.82.05-1.19 0-.384-.017-.753-.017-1.122z"/>
        <path fill="#64C200" d="M29.588 20.906c0-.268-.017-.536-.017-.804a64.334 64.334 0 0 0-.34-4.958c-.051-.486-.12-.955-.17-1.407a45.229 45.229 0 0 0-.85-4.54c-.035-.168-.086-.335-.12-.486a30.196 30.196 0 0 0-1.157-3.602c-.051-.134-.102-.25-.153-.385-.443-1.055-.936-1.96-1.463-2.68-.068-.084-.137-.185-.205-.268-.05-.067-.102-.118-.153-.185a4.315 4.315 0 0 0-.46-.485C24.094.72 23.685.419 23.26.235l-.255-.101a2.668 2.668 0 0 0-.8-.134c-.136 0-.272.017-.408.034-.085.016-.188.033-.273.067-.357.1-.697.268-1.038.502-.136.1-.272.201-.39.318-.171.151-.324.319-.494.486-.068.084-.136.15-.204.251-.545.67-1.055 1.508-1.515 2.53-.05.117-.119.235-.17.369a27.265 27.265 0 0 0-1.208 3.45c-.051.151-.085.319-.136.47-.357 1.34-.647 2.814-.902 4.372-.034.2-.068.402-.085.603a82.76 82.76 0 0 0-.272 2.261c-.034.386-.068.77-.102 1.173-.051.687-.102 1.374-.136 2.094-.017.251-.017.503-.034.77-.034.738-.034 1.508-.034 2.262 0 .67.034 1.44.085 2.278.017.235.034.47.05.72.069.872.154 1.81.256 2.798.051.419.085.838.136 1.273.051.436.102.888.153 1.34.017.202.051.42.085.62.204 1.625.443 3.3.68 5.01.035.2.052.401.086.602.221 1.525.46 3.066.698 4.557.085.553.187 1.105.272 1.658.221 1.374.442 2.68.646 3.903.034.185.068.386.102.57.324 1.843.596 3.417.817 4.607.034.2.068.385.102.553l.323 1.775H25.113s.188-.971.477-2.596l.102-.553c.221-1.273.51-2.848.817-4.624.034-.184.068-.385.102-.57l.102-.602c.102-.553.187-1.123.289-1.709.136-.787.255-1.591.391-2.412.034-.201.068-.385.085-.587.256-1.591.51-3.216.732-4.84.034-.202.051-.403.085-.604.204-1.407.391-2.814.562-4.154.068-.52.119-1.022.187-1.525.238-2.044.425-3.937.51-5.528.017-.251.034-.503.034-.754.017-.419.017-.82.017-1.19 0-.384 0-.753-.017-1.122z"/>
        <path fill="#E06F63" d="M12.627 52.138c.102.184.204.354.306.507.613 1.031.988 1.631.988 1.631H31.457s.562-.892 1.447-2.384l.307-.508c.647-1.108 1.447-2.477 2.315-4.016H9.868c.103.17.205.354.29.524a134.652 134.652 0 0 0 2.469 4.246zM28.604 75h-12.8l-1.988-10.855h16.776z"/>
        <path fill="#F69182" d="M30.75 67.105H13.657c-.456 0-.828-.357-.828-.796v-2.355c0-.439.372-.796.828-.796H30.75c.457 0 .829.357.829.796v2.355c0 .423-.372.796-.829.796z"/>
        <path fill="#FEF5F8" d="M17.763 68.975c0-1.143-.888-3.843-1.974-3.843-1.085 0-1.973 2.7-1.973 3.843 0 1.143.888 2.078 1.973 2.078 1.086 0 1.974-.935 1.974-2.078zM24.671 68.975c0-1.143-.888-3.843-1.974-3.843-1.085 0-1.973 2.7-1.973 3.843 0 1.143.888 2.078 1.973 2.078 1.086 0 1.974-.935 1.974-2.078zM30.592 68.975c0-1.143-.888-3.843-1.974-3.843-1.085 0-1.973 2.7-1.973 3.843 0 1.143.888 2.078 1.973 2.078 1.086 0 1.974-.935 1.974-2.078zM32.186 64.145H12.24c-.207 0-.397.214-.397.493 0 .258.173.494.397.494h19.93c.207 0 .397-.215.397-.494s-.173-.493-.38-.493z"/>
    </g>
</svg>
