<svg xmlns="http://www.w3.org/2000/svg" width="109" height="160" viewBox="0 0 109 160">
    <defs>
        <filter id="a" width="261.1%" height="196.7%" x="-80.6%" y="-48.3%" filterUnits="objectBoundingBox">
            <feOffset dy="10" in="SourceAlpha" result="shadowOffsetOuter1"/>
            <feGaussianBlur in="shadowOffsetOuter1" result="shadowBlurOuter1" stdDeviation="10"/>
            <feColorMatrix in="shadowBlurOuter1" result="shadowMatrixOuter1" values="0 0 0 0 0 0 0 0 0 0 0 0 0 0 0 0 0 0 0.172066215 0"/>
            <feMerge>
                <feMergeNode in="shadowMatrixOuter1"/>
                <feMergeNode in="SourceGraphic"/>
            </feMerge>
        </filter>
    </defs>
    <g fill="none" fill-rule="nonzero" filter="url(#a)" transform="translate(19 10)">
        <path fill="#FEF5F8" d="M2.288 42.556l.893-.298 21.568 64.14-.893.298zM20.975 45.578l.934-.122 8.062 61.38-.934.122zM46.3 106.395l21.574-64.133.893.299-21.574 64.133zM41.077 106.84l8.055-61.38.934.122-8.055 61.38zM34.737 45.789h1.579v60h-1.579z"/>
        <path fill="#FFD000" d="M70.999 33.45l-.082-1.286c-.243-2.734-.784-5.414-1.622-7.934a27.734 27.734 0 0 0-.839-2.251c-1.055-2.6-2.434-5.013-4.03-7.264a8.464 8.464 0 0 0-.595-.777 36.205 36.205 0 0 0-5.545-5.763c-.243-.214-.513-.402-.757-.617a35.414 35.414 0 0 0-7.032-4.288c-.325-.134-.65-.295-.947-.429-.243-.107-.46-.187-.703-.295-.73-.295-1.434-.563-2.19-.777A36.248 36.248 0 0 0 40.651.375c-.406-.053-.812-.107-1.244-.16A36.584 36.584 0 0 0 35.54 0c-.676 0-1.325.027-2.002.054-.432.026-.865.053-1.298.107-1.704.16-3.354.429-4.977.804-.649.16-1.27.322-1.893.51a48.26 48.26 0 0 0-2.353.776c-.325.134-.676.242-1 .403-2.597 1.072-5.058 2.412-7.303 4.047-.27.187-.541.375-.785.59a36.285 36.285 0 0 0-5.788 5.52c-.216.242-.406.51-.622.751a35.061 35.061 0 0 0-4.3 6.996c-.136.322-.298.643-.433.965a28.865 28.865 0 0 0-1.298 3.618c-.19.617-.352 1.233-.514 1.877a27.141 27.141 0 0 0-.622 3.35c-.054.402-.109.804-.163 1.233A32.097 32.097 0 0 0 0 35.219c0 1.072.135 2.305.379 3.646.08.375.135.75.243 1.152a44.913 44.913 0 0 0 1.217 4.476c.217.67.433 1.34.676 2.037.244.697.487 1.42.758 2.144.135.322.243.67.378.992.974 2.6 2.083 5.28 3.273 8.014.135.322.27.644.433.965a223.876 223.876 0 0 0 3.38 7.29l1.299 2.654a454.65 454.65 0 0 0 3.137 6.245c.163.295.325.617.46.912a270.24 270.24 0 0 0 3.922 7.37c.162.322.325.617.487.885.974 1.796 1.569 2.841 1.569 2.841h27.858s.893-1.554 2.3-4.154l.486-.885c1.082-2.037 2.434-4.556 3.895-7.398.162-.294.297-.616.46-.91l.486-.966c.46-.884.893-1.796 1.38-2.734.622-1.26 1.244-2.546 1.893-3.86.135-.321.298-.616.433-.937a251.722 251.722 0 0 0 3.543-7.747l.406-.964a154.938 154.938 0 0 0 2.677-6.648c.325-.83.595-1.635.893-2.439 1.136-3.27 2.001-6.298 2.434-8.845.081-.402.135-.804.162-1.206.082-.67.136-1.313.136-1.903 0-.616-.027-1.206-.054-1.796z"/>
        <path fill="#FEF5F8" d="M59.973 33.45c-.027-.429-.027-.857-.053-1.286-.16-2.734-.536-5.414-1.124-7.934a45.754 45.754 0 0 0-.589-2.251 40.458 40.458 0 0 0-2.783-7.264c-.134-.268-.268-.536-.402-.777a34.185 34.185 0 0 0-3.827-5.763c-.16-.214-.348-.402-.535-.617-1.499-1.688-3.104-3.135-4.844-4.288-.214-.134-.428-.295-.669-.429-.16-.107-.321-.187-.482-.295-.481-.295-.99-.563-1.498-.777C41.829 1.153 40.464.67 39.045.375c-.294-.053-.562-.107-.856-.16A17.656 17.656 0 0 0 35.54 0c-.454 0-.91.027-1.364.054a9.92 9.92 0 0 0-.883.107c-1.178.16-2.329.429-3.426.804-.428.16-.883.322-1.311.51-.562.24-1.097.508-1.633.776-.24.134-.455.242-.695.403A23.676 23.676 0 0 0 21.195 6.7a5.595 5.595 0 0 0-.535.59 32.698 32.698 0 0 0-3.987 5.52c-.134.242-.295.51-.429.751-1.177 2.145-2.167 4.503-2.97 6.996-.107.322-.187.643-.295.965a51.044 51.044 0 0 0-.91 3.618c-.133.617-.24 1.233-.347 1.877a44.01 44.01 0 0 0-.429 3.35c-.026.402-.08.804-.107 1.233a53.821 53.821 0 0 0-.133 3.618c0 1.072.107 2.305.267 3.646.054.375.107.75.16 1.152.215 1.394.483 2.895.83 4.476.134.67.295 1.34.455 2.037.161.697.348 1.42.536 2.144.08.322.16.67.267.992.67 2.6 1.445 5.28 2.248 8.014.107.322.188.644.295.965.749 2.44 1.525 4.905 2.328 7.29l.883 2.654a510.06 510.06 0 0 0 2.168 6.245c.107.295.214.617.32.912a348.085 348.085 0 0 0 2.704 7.37c.107.322.24.617.348.885a105.214 105.214 0 0 0 1.097 2.841h19.188s.616-1.554 1.58-4.154l.32-.885c.75-2.037 1.686-4.556 2.676-7.398.108-.294.215-.616.322-.91.107-.322.214-.644.348-.966.32-.884.615-1.796.936-2.734.428-1.26.857-2.546 1.311-3.86.108-.321.215-.616.295-.937.83-2.547 1.66-5.147 2.435-7.747.107-.321.188-.643.295-.964a213.08 213.08 0 0 0 1.846-6.648c.214-.83.428-1.635.616-2.439.776-3.27 1.391-6.298 1.686-8.845.053-.402.08-.804.107-1.206.053-.67.08-1.313.08-1.903 0-.616-.027-1.206-.027-1.796z"/>
        <path fill="#FFD000" d="M47.341 33.45c0-.429-.027-.857-.027-1.286a102.934 102.934 0 0 0-.544-7.934c-.082-.777-.191-1.528-.273-2.251a72.366 72.366 0 0 0-1.36-7.264c-.055-.268-.137-.536-.191-.777a48.314 48.314 0 0 0-1.852-5.763c-.081-.214-.163-.402-.245-.617-.707-1.688-1.497-3.135-2.34-4.288-.11-.134-.219-.295-.328-.429-.081-.107-.163-.187-.245-.295a6.904 6.904 0 0 0-.735-.777C38.548 1.153 37.895.67 37.214.375l-.408-.16A4.269 4.269 0 0 0 35.526 0c-.217 0-.435.027-.653.054-.136.026-.3.053-.436.107a5.573 5.573 0 0 0-1.66.804c-.218.16-.436.322-.626.51-.273.24-.518.508-.79.776-.109.134-.218.242-.327.403-.87 1.072-1.687 2.412-2.422 4.047-.082.187-.19.375-.273.59a43.624 43.624 0 0 0-1.932 5.52c-.082.242-.137.51-.218.751-.572 2.145-1.035 4.503-1.443 6.996-.055.322-.109.643-.136.965-.164 1.18-.3 2.385-.436 3.618-.054.617-.109 1.233-.163 1.877a122.611 122.611 0 0 0-.218 3.35c-.027.402-.027.804-.054 1.233-.055 1.18-.055 2.412-.055 3.618 0 1.072.055 2.305.136 3.646.028.375.055.75.082 1.152.109 1.394.245 2.895.408 4.476.082.67.136 1.34.218 2.037.082.697.163 1.42.245 2.144.027.322.082.67.136.992.327 2.6.708 5.28 1.09 8.014.054.322.08.644.135.965.354 2.44.735 4.905 1.116 7.29.137.885.3 1.77.436 2.654.354 2.198.708 4.289 1.035 6.245.054.295.108.617.163.912.517 2.948.953 5.467 1.307 7.37.054.322.108.617.163.885l.517 2.841H40.181s.3-1.554.763-4.154l.163-.885c.354-2.037.817-4.556 1.307-7.398.054-.294.109-.616.163-.91l.163-.966c.164-.884.3-1.796.463-2.734.218-1.26.409-2.546.626-3.86.055-.321.11-.616.137-.937a330.79 330.79 0 0 0 1.17-7.747c.055-.321.082-.643.136-.964.327-2.252.626-4.503.899-6.648.108-.83.19-1.635.3-2.439.38-3.27.68-6.298.816-8.845.027-.402.054-.804.054-1.206.027-.67.027-1.313.027-1.903 0-.616 0-1.206-.027-1.796z"/>
        <path fill="#E06F63" d="M20.203 83.42c.163.296.326.567.49.813.98 1.65 1.58 2.61 1.58 2.61H50.33s.9-1.429 2.316-3.816l.49-.813c1.035-1.772 2.316-3.963 3.705-6.425H15.79c.164.271.327.567.464.837a215.443 215.443 0 0 0 3.95 6.794zM45.767 120H25.286l-3.18-17.368h26.841z"/>
        <path fill="#F69182" d="M49.2 107.368H21.853c-.73 0-1.326-.571-1.326-1.273v-3.769c0-.702.595-1.273 1.326-1.273H49.2c.73 0 1.325.571 1.325 1.273v3.769c0 .676-.595 1.273-1.325 1.273z"/>
        <path fill="#FEF5F8" d="M28.421 110.36c0-1.828-1.421-6.15-3.158-6.15-1.737 0-3.158 4.322-3.158 6.15 0 1.828 1.421 3.324 3.158 3.324 1.737 0 3.158-1.496 3.158-3.324zM39.474 110.36c0-1.828-1.421-6.15-3.158-6.15-1.737 0-3.158 4.322-3.158 6.15 0 1.828 1.42 3.324 3.158 3.324 1.737 0 3.158-1.496 3.158-3.324zM48.947 110.36c0-1.828-1.42-6.15-3.158-6.15-1.736 0-3.157 4.322-3.157 6.15 0 1.828 1.42 3.324 3.157 3.324s3.158-1.496 3.158-3.324z"/>
        <path fill="#FEF5F8" d="M51.498 102.632H19.582c-.331 0-.635.343-.635.79 0 .411.276.789.635.789H51.47c.33 0 .634-.344.634-.79 0-.446-.276-.79-.607-.79z"/>
    </g>
</svg>
