<svg xmlns="http://www.w3.org/2000/svg" width="68" height="88" viewBox="0 0 68 88">
    <defs>
        <filter id="a" width="486.7%" height="332%" x="-193.3%" y="-116%" filterUnits="objectBoundingBox">
            <feOffset dy="10" in="SourceAlpha" result="shadowOffsetOuter1"/>
            <feGaussianBlur in="shadowOffsetOuter1" result="shadowBlurOuter1" stdDeviation="10"/>
            <feColorMatrix in="shadowBlurOuter1" result="shadowMatrixOuter1" values="0 0 0 0 0 0 0 0 0 0 0 0 0 0 0 0 0 0 0.172066215 0"/>
            <feMerge>
                <feMergeNode in="shadowMatrixOuter1"/>
                <feMergeNode in="SourceGraphic"/>
            </feMerge>
        </filter>
    </defs>
    <g fill="none" fill-rule="nonzero" filter="url(#a)" transform="translate(19 9)">
        <path fill="#FEF5F8" d="M.953 17.732l.373-.125 8.986 26.725-.372.125zM8.74 18.99l.389-.05 3.36 25.575-.39.05zM19.292 44.331L28.28 17.61l.372.125-8.99 26.722zM17.115 44.517l3.357-25.575.389.05-3.357 25.575zM15 19h1v24h-1z"/>
        <path fill="#F90202" d="M29.977 13.867l-.034-.534a14.294 14.294 0 0 0-.685-3.289A14.824 14.824 0 0 0 27.202 6.1a3.517 3.517 0 0 0-.251-.322 15.135 15.135 0 0 0-2.341-2.39c-.103-.088-.217-.166-.32-.255-.914-.7-1.907-1.3-2.97-1.777-.136-.056-.273-.123-.399-.178-.103-.045-.194-.078-.297-.122A9.084 9.084 0 0 0 19.7.733a15.544 15.544 0 0 0-2.535-.577A15.73 15.73 0 0 0 15.006 0c-.286 0-.56.011-.845.022a9.105 9.105 0 0 0-.549.045c-.719.066-1.416.177-2.1.333a16.684 16.684 0 0 0-1.794.533c-.137.056-.285.1-.422.167-1.097.444-2.136 1-3.084 1.678-.114.078-.228.155-.33.244a15.204 15.204 0 0 0-2.445 2.29c-.091.1-.17.21-.262.31a14.491 14.491 0 0 0-1.816 2.9c-.057.134-.126.267-.183.4-.217.49-.4.99-.548 1.5-.08.256-.148.511-.217.778-.114.456-.205.911-.263 1.389L.08 13.1c-.057.489-.08 1-.08 1.5 0 .444.057.956.16 1.511.034.156.057.311.103.478.125.578.297 1.2.514 1.855.09.278.182.556.285.845.103.289.206.589.32.889.057.133.103.278.16.41a68.47 68.47 0 0 0 1.381 3.323c.058.133.115.267.183.4a92.025 92.025 0 0 0 1.428 3.022l.548 1.1c.457.911.902 1.778 1.325 2.59.068.121.137.255.194.377.64 1.222 1.21 2.267 1.656 3.056.068.133.137.255.205.366.411.745.662 1.178.662 1.178H20.887s.377-.644.97-1.722c.07-.122.138-.245.206-.367.457-.844 1.028-1.889 1.645-3.067.068-.122.125-.255.194-.377l.205-.4c.194-.367.377-.745.583-1.134.262-.522.525-1.055.8-1.6.056-.133.125-.255.182-.389a103.449 103.449 0 0 0 1.496-3.21l.171-.4c.411-.934.788-1.867 1.13-2.756.138-.345.252-.678.378-1.011.48-1.356.845-2.611 1.027-3.667.035-.167.057-.333.069-.5.034-.278.057-.544.057-.789 0-.255-.011-.5-.023-.744z"/>
        <path fill="#FEF5F8" d="M23.99 13.867c-.012-.178-.012-.356-.023-.534a19.84 19.84 0 0 0-.46-3.289 19.19 19.19 0 0 0-.24-.933A16.921 16.921 0 0 0 22.13 6.1c-.055-.111-.11-.222-.164-.322a14.19 14.19 0 0 0-1.564-2.39c-.065-.088-.142-.166-.218-.255-.613-.7-1.269-1.3-1.98-1.777-.087-.056-.174-.123-.273-.178-.065-.045-.131-.078-.197-.122a4.62 4.62 0 0 0-.612-.323 7.75 7.75 0 0 0-1.684-.577l-.35-.067A7.113 7.113 0 0 0 14.005 0c-.185 0-.371.011-.557.022-.12.011-.24.022-.361.045a7.353 7.353 0 0 0-1.4.333c-.175.067-.36.133-.536.211-.23.1-.448.211-.667.322-.098.056-.185.1-.284.167a9.7 9.7 0 0 0-2.056 1.678c-.076.078-.153.155-.218.244a13.55 13.55 0 0 0-1.63 2.29c-.054.1-.12.21-.175.31a16.756 16.756 0 0 0-1.213 2.9c-.044.134-.077.267-.12.4-.143.49-.263.99-.372 1.5a16.34 16.34 0 0 0-.143.778c-.076.456-.13.911-.175 1.389-.01.167-.032.333-.043.511-.033.489-.055 1-.055 1.5 0 .444.044.956.11 1.511l.065.478c.087.578.197 1.2.339 1.855.055.278.12.556.186.845.065.289.142.589.219.889.032.133.065.278.109.41.273 1.079.59 2.19.918 3.323.044.133.077.267.12.4.307 1.011.624 2.033.952 3.022l.36 1.1c.307.911.602 1.778.887 2.59.043.121.087.255.13.377.427 1.222.81 2.267 1.105 3.056.044.133.099.255.142.366.274.745.449 1.178.449 1.178h7.84s.252-.644.645-1.722l.131-.367c.307-.844.69-1.889 1.094-3.067.044-.122.087-.255.131-.377.044-.134.088-.267.142-.4.132-.367.252-.745.383-1.134.175-.522.35-1.055.536-1.6.044-.133.087-.255.12-.389.34-1.055.678-2.133.995-3.21.044-.134.077-.267.12-.4.274-.934.525-1.867.755-2.756.088-.345.175-.678.252-1.011.317-1.356.568-2.611.688-3.667a7.71 7.71 0 0 0 .044-.5c.022-.278.033-.544.033-.789 0-.255-.01-.5-.01-.744z"/>
        <path fill="#F90202" d="M18.989 13.867c0-.178-.012-.356-.012-.534a41.907 41.907 0 0 0-.23-3.289c-.034-.322-.08-.633-.115-.933a29.51 29.51 0 0 0-.575-3.011c-.023-.111-.057-.222-.08-.322a19.768 19.768 0 0 0-.782-2.39c-.034-.088-.069-.166-.103-.255-.299-.7-.632-1.3-.989-1.777-.046-.056-.092-.123-.137-.178-.035-.045-.07-.078-.104-.122a2.885 2.885 0 0 0-.31-.323c-.276-.255-.552-.455-.84-.577L14.54.089A1.833 1.833 0 0 0 14 0c-.092 0-.184.011-.276.022-.057.011-.126.022-.184.045a2.372 2.372 0 0 0-.965.544c-.115.1-.219.211-.334.322-.046.056-.092.1-.138.167-.367.444-.712 1-1.023 1.678-.034.078-.08.155-.114.244a17.865 17.865 0 0 0-.817 2.29c-.034.1-.057.21-.092.31a30.105 30.105 0 0 0-.609 2.9c-.023.134-.046.267-.057.4-.07.49-.127.99-.184 1.5l-.07.778c-.034.456-.068.911-.091 1.389-.012.167-.012.333-.023.511C9 13.589 9 14.1 9 14.6c0 .444.023.956.057 1.511l.035.478c.046.578.103 1.2.172 1.855.035.278.058.556.092.845.035.289.07.589.104.889.011.133.034.278.057.41.138 1.079.3 2.19.46 3.323.023.133.034.267.057.4.15 1.011.31 2.033.472 3.022.057.367.126.734.184 1.1.15.911.299 1.778.436 2.59.023.121.046.255.07.377.218 1.222.402 2.267.551 3.056.023.133.046.255.07.366L12.033 36h3.932s.126-.644.321-1.722l.07-.367c.149-.844.344-1.889.551-3.067l.069-.377.069-.4c.069-.367.126-.745.195-1.134.092-.522.173-1.055.265-1.6.023-.133.046-.255.057-.389.173-1.055.345-2.133.494-3.21.023-.134.035-.267.058-.4.138-.934.264-1.867.38-2.756.045-.345.08-.678.126-1.011.16-1.356.287-2.611.345-3.667.011-.167.023-.333.023-.5.011-.278.011-.544.011-.789 0-.255 0-.5-.011-.744z"/>
        <path fill="#E06F63" d="M8.935 34.762c.072.107.143.205.215.294.43.597.693.944.693.944H22.145s.394-.517 1.016-1.38l.215-.295C23.829 33.684 24.39 32.891 25 32H7c.072.098.143.205.203.303a76.123 76.123 0 0 0 1.732 2.459zM19.697 50h-8.394L10 43h11z"/>
        <path fill="#F69182" d="M19.47 45H8.53c-.292 0-.53-.272-.53-.605v-1.79c0-.333.238-.605.53-.605h10.94c.292 0 .53.272.53.605v1.79c0 .321-.238.605-.53.605z"/>
        <path fill="#FEF5F8" d="M12 45.596c0-.771-.675-2.596-1.5-2.596S9 44.825 9 45.596C9 46.368 9.675 47 10.5 47s1.5-.632 1.5-1.404zM17 45.596c0-.771-.675-2.596-1.5-2.596S14 44.825 14 45.596c0 .772.675 1.404 1.5 1.404s1.5-.632 1.5-1.404zM21 45.596c0-.771-.675-2.596-1.5-2.596S18 44.825 18 45.596c0 .772.675 1.404 1.5 1.404s1.5-.632 1.5-1.404z"/>
        <path fill="#FEF5F8" d="M21.744 43H8.268c-.14 0-.268.217-.268.5 0 .26.116.5.268.5h13.464c.14 0 .268-.217.268-.5 0-.283-.116-.5-.256-.5z"/>
    </g>
</svg>
