<svg xmlns="http://www.w3.org/2000/svg" width="83" height="115" viewBox="0 0 83 115">
    <defs>
        <filter id="a" width="357.8%" height="254.7%" x="-128.9%" y="-77.3%" filterUnits="objectBoundingBox">
            <feOffset dy="10" in="SourceAlpha" result="shadowOffsetOuter1"/>
            <feGaussianBlur in="shadowOffsetOuter1" result="shadowBlurOuter1" stdDeviation="10"/>
            <feColorMatrix in="shadowBlurOuter1" result="shadowMatrixOuter1" values="0 0 0 0 0 0 0 0 0 0 0 0 0 0 0 0 0 0 0.172066215 0"/>
            <feMerge>
                <feMergeNode in="shadowMatrixOuter1"/>
                <feMergeNode in="SourceGraphic"/>
            </feMerge>
        </filter>
    </defs>
    <g fill="none" fill-rule="nonzero" filter="url(#a)" transform="translate(19 10)">
        <path fill="#FEF5F8" d="M1.43 26.598l.558-.187 13.48 40.087-.558.187zM13.11 28.486l.583-.076 5.04 38.363-.585.076zM28.937 66.497l13.484-40.083.559.186-13.484 40.084zM25.673 66.775l5.035-38.362.583.076-5.034 38.362zM22 28h2v36h-2z"/>
        <path fill="#02C3F9" d="M44.966 20.8l-.052-.8a21.442 21.442 0 0 0-1.027-4.933c-.155-.484-.343-.95-.531-1.4-.669-1.617-1.542-3.117-2.553-4.517-.12-.167-.24-.333-.377-.483a22.702 22.702 0 0 0-3.511-3.584c-.154-.133-.326-.25-.48-.383a22.51 22.51 0 0 0-4.454-2.667c-.205-.083-.41-.183-.6-.266-.153-.067-.29-.117-.445-.184-.462-.183-.907-.35-1.387-.483a23.316 23.316 0 0 0-4.59-.967A23.595 23.595 0 0 0 22.508 0c-.429 0-.84.017-1.268.033-.274.017-.548.034-.822.067-1.08.1-2.124.267-3.152.5a25.027 25.027 0 0 0-2.69.8c-.205.083-.428.15-.633.25a22.407 22.407 0 0 0-4.625 2.517 5.393 5.393 0 0 0-.497.366 22.806 22.806 0 0 0-3.666 3.434c-.137.15-.257.316-.394.466a21.737 21.737 0 0 0-2.724 4.35c-.085.2-.188.4-.274.6-.325.734-.6 1.484-.822 2.25-.12.384-.223.767-.325 1.167a16.602 16.602 0 0 0-.394 2.083c-.035.25-.069.5-.103.767A19.6 19.6 0 0 0 0 21.9c0 .667.086 1.433.24 2.267.051.233.085.466.154.716.188.867.445 1.8.77 2.784.138.416.275.833.43 1.266.153.434.307.884.479 1.334.085.2.154.416.24.616a102.705 102.705 0 0 0 2.072 4.984c.086.2.172.4.274.6.685 1.516 1.405 3.05 2.142 4.533l.822 1.65a280.712 280.712 0 0 0 1.987 3.883c.103.184.205.384.291.567.96 1.833 1.816 3.4 2.484 4.583.103.2.205.384.308.55.617 1.117.994 1.767.994 1.767H31.33s.566-.967 1.456-2.583l.309-.55c.685-1.267 1.541-2.834 2.466-4.6.103-.184.189-.384.292-.567l.308-.6c.291-.55.565-1.117.874-1.7.394-.783.788-1.583 1.199-2.4.085-.2.188-.383.274-.583.77-1.584 1.524-3.2 2.244-4.817l.257-.6c.616-1.4 1.182-2.8 1.696-4.133.205-.517.376-1.017.565-1.517.72-2.033 1.267-3.917 1.542-5.5.051-.25.085-.5.102-.75.052-.417.086-.817.086-1.183 0-.384-.017-.75-.034-1.117z"/>
        <path fill="#FEF5F8" d="M35.984 20.8c-.017-.267-.017-.533-.033-.8a29.759 29.759 0 0 0-.69-4.933c-.114-.484-.229-.95-.36-1.4a25.382 25.382 0 0 0-1.952-5 21.284 21.284 0 0 0-2.345-3.584c-.099-.133-.214-.25-.328-.383-.919-1.05-1.903-1.95-2.97-2.667-.13-.083-.262-.183-.41-.266-.098-.067-.196-.117-.295-.184a6.93 6.93 0 0 0-.918-.483 11.626 11.626 0 0 0-2.526-.867c-.18-.033-.345-.066-.525-.1A10.67 10.67 0 0 0 21.008 0c-.279 0-.557.017-.836.033-.18.017-.361.034-.542.067-.721.1-1.427.267-2.1.5-.262.1-.54.2-.803.317-.344.15-.672.316-1 .483-.148.083-.28.15-.427.25a14.55 14.55 0 0 0-3.083 2.517c-.115.116-.23.233-.329.366a20.325 20.325 0 0 0-2.443 3.434c-.083.15-.18.316-.263.466a25.134 25.134 0 0 0-1.82 4.35c-.066.2-.115.4-.181.6a32.12 32.12 0 0 0-.558 2.25c-.082.384-.147.767-.213 1.167a27.744 27.744 0 0 0-.262 2.083c-.017.25-.05.5-.066.767-.05.733-.082 1.5-.082 2.25 0 .667.066 1.433.164 2.267.033.233.066.466.098.716.132.867.296 1.8.509 2.784.082.416.18.833.279 1.266.098.434.213.884.328 1.334.049.2.098.416.164.616.41 1.617.886 3.284 1.378 4.984.065.2.114.4.18.6.46 1.516.935 3.05 1.427 4.533l.541 1.65a320.3 320.3 0 0 0 1.329 3.883c.066.184.131.384.197.567.64 1.833 1.214 3.4 1.656 4.583.066.2.148.384.214.55.41 1.117.672 1.767.672 1.767h11.761s.377-.967.967-2.583l.197-.55c.46-1.267 1.034-2.834 1.64-4.6.066-.184.132-.384.197-.567.066-.2.132-.4.214-.6.196-.55.377-1.117.574-1.7.262-.783.524-1.583.803-2.4.066-.2.132-.383.18-.583.51-1.584 1.018-3.2 1.493-4.817.066-.2.115-.4.18-.6.41-1.4.788-2.8 1.133-4.133.13-.517.262-1.017.377-1.517.476-2.033.853-3.917 1.033-5.5.033-.25.05-.5.066-.75.033-.417.049-.817.049-1.183 0-.384-.016-.75-.016-1.117z"/>
        <path fill="#02C3F9" d="M27.983 20.8c0-.267-.017-.533-.017-.8a62.86 62.86 0 0 0-.345-4.933c-.052-.484-.121-.95-.173-1.4a44.266 44.266 0 0 0-.862-4.517c-.034-.167-.086-.333-.12-.483a29.653 29.653 0 0 0-1.173-3.584c-.052-.133-.103-.25-.155-.383-.448-1.05-.948-1.95-1.483-2.667-.069-.083-.138-.183-.207-.266-.051-.067-.103-.117-.155-.184a4.327 4.327 0 0 0-.465-.483C22.414.717 22 .417 21.569.233l-.259-.1A2.749 2.749 0 0 0 20.5 0c-.138 0-.276.017-.414.033-.086.017-.19.034-.276.067-.362.1-.707.267-1.051.5-.138.1-.276.2-.397.317-.172.15-.328.316-.5.483-.069.083-.138.15-.207.25-.552.667-1.069 1.5-1.534 2.517-.052.116-.121.233-.173.366a26.798 26.798 0 0 0-1.224 3.434c-.052.15-.086.316-.138.466-.362 1.334-.655 2.8-.914 4.35-.034.2-.069.4-.086.6-.103.734-.19 1.484-.276 2.25-.034.384-.069.767-.103 1.167a74.873 74.873 0 0 0-.138 2.083c-.017.25-.017.5-.035.767C13 20.383 13 21.15 13 21.9c0 .667.034 1.433.086 2.267.017.233.035.466.052.716.069.867.155 1.8.259 2.784.051.416.086.833.137 1.266.052.434.104.884.156 1.334.017.2.051.416.086.616.207 1.617.448 3.284.69 4.984.034.2.051.4.086.6.224 1.516.465 3.05.707 4.533.086.55.19 1.1.275 1.65.225 1.367.449 2.667.656 3.883l.103.567c.328 1.833.604 3.4.828 4.583.034.2.069.384.103.55L17.552 54h5.896s.19-.967.483-2.583l.103-.55c.225-1.267.518-2.834.828-4.6.035-.184.069-.384.104-.567l.103-.6c.103-.55.19-1.117.293-1.7.138-.783.259-1.583.397-2.4.034-.2.069-.383.086-.583.258-1.584.517-3.2.741-4.817.035-.2.052-.4.086-.6.207-1.4.397-2.8.57-4.133.068-.517.12-1.017.189-1.517.241-2.033.431-3.917.517-5.5.018-.25.035-.5.035-.75.017-.417.017-.817.017-1.183 0-.384 0-.75-.017-1.117z"/>
        <path fill="#E06F63" d="M13.902 52.143c.108.16.215.307.323.44.645.896 1.04 1.417 1.04 1.417h18.453s.591-.775 1.523-2.071l.322-.441c.681-.962 1.523-2.152 2.437-3.488H11c.107.147.215.307.305.454 1.003 1.484 1.899 2.74 2.597 3.689zM29.986 75H17.014L15 64h17z"/>
        <path fill="#F69182" d="M29.205 67h-16.41a.802.802 0 0 1-.795-.807v-2.386c0-.445.357-.807.795-.807h16.41c.438 0 .795.362.795.807v2.386a.813.813 0 0 1-.795.807z"/>
        <path fill="#FEF5F8" d="M17 67.895C17 66.737 16.1 64 15 64s-2 2.737-2 3.895S13.9 70 15 70s2-.947 2-2.105zM25 67.895C25 66.737 24.1 64 23 64s-2 2.737-2 3.895S21.9 70 23 70s2-.947 2-2.105zM32 67.895C32 66.737 31.1 64 30 64s-2 2.737-2 3.895S28.9 70 30 70s2-.947 2-2.105z"/>
        <path fill="#FEF5F8" d="M32.616 64H12.402c-.21 0-.402.435-.402 1 0 .522.175 1 .402 1h20.196c.21 0 .402-.435.402-1s-.175-1-.384-1z"/>
    </g>
</svg>
