
<svg width="26px" height="24px" viewBox="0 0 26 24" version="1.1" xmlns="http://www.w3.org/2000/svg" xmlns:xlink="http://www.w3.org/1999/xlink">
    <!-- Generator: Sketch 51.3 (57544) - http://www.bohemiancoding.com/sketch -->
    <desc>Created with Sketch.</desc>
    <defs></defs>
    <g id="Page-1" stroke="none" stroke-width="1" fill="none" fill-rule="evenodd">
        <g id="Group" transform="translate(-4.000000, -8.000000)">
            <rect id="Rectangle" fill-opacity="0" fill="#FFFFFF" x="0" y="0" width="32" height="32"></rect>
            <path d="M18.6210937,16.9101562 C16.5969616,18.9342796 13.8332033,22.3968936 10.3298188,27.2979983 C9.19527496,26.1346975 8.31865243,25.359909 7.69995117,24.9736328 C7.04727995,24.5661481 6.01684375,24.1502952 4.60864258,23.7260742 C3.95368518,23.0710357 5.87423898,25.7946491 6.62768555,26.5480957 C7.33708245,27.2574926 8.17582216,28.6935094 9.14390467,30.856146 C9.47138338,31.1837058 9.90072271,31.3474452 10.329981,31.3474452 C10.7592392,31.3474452 11.1884974,31.1837058 11.5160572,30.856146 C14.7188834,24.6510113 17.3364965,20.3290082 19.3688965,17.8901367 C21.2521837,15.6301999 24.5081014,12.4972372 29.1366497,8.49124846 C29.7916882,7.83620996 21.8538392,13.6774247 18.6210937,16.9101562 Z" id="Shape" fill="#78BC61" fill-rule="nonzero"></path>
        </g>
    </g>
</svg>