
<svg width="18px" height="18px" viewBox="0 0 18 18" version="1.1" xmlns="http://www.w3.org/2000/svg" xmlns:xlink="http://www.w3.org/1999/xlink">
    <!-- Generator: Sketch 51.3 (57544) - http://www.bohemiancoding.com/sketch -->
    <desc>Created with Sketch.</desc>
    <defs></defs>
    <g id="Page-1" stroke="none" stroke-width="1" fill="none" fill-rule="evenodd">
        <g id="127936" transform="translate(1.000000, 1.000000)" fill="#28323F" fill-rule="nonzero" stroke="#28323F">
            <path d="M7.23525,7.9465 L0.15325,15.0285 C-0.0435,15.22525 -0.0435,15.544 0.15325,15.74075 C0.2515,15.83925 0.3805,15.88825 0.50925,15.88825 C0.63825,15.88825 0.767,15.83925 0.86525,15.74075 L8.0005,8.6055 L15.13575,15.74075 C15.23425,15.83925 15.363,15.88825 15.49175,15.88825 C15.6205,15.88825 15.7495,15.83925 15.84775,15.74075 C16.0445,15.544 16.0445,15.22525 15.84775,15.0285 L8.766,7.9465 L15.8525,0.8595 C16.04925,0.66275 16.04925,0.344 15.8525,0.14725 C15.65575,-0.04925 15.337,-0.04925 15.1405,0.14725 L8.00075,7.2875 L0.86025,0.1475 C0.6635,-0.049 0.345,-0.049 0.14825,0.1475 C-0.0485,0.34425 -0.0485,0.663 0.14825,0.85975 L7.23525,7.9465 Z" id="Shape"></path>
        </g>
    </g>
</svg>