
<svg width="67px" height="40px" viewBox="0 0 67 40" version="1.1" xmlns="http://www.w3.org/2000/svg" xmlns:xlink="http://www.w3.org/1999/xlink">
    <!-- Generator: Sketch 51.3 (57544) - http://www.bohemiancoding.com/sketch -->
    <desc>Created with Sketch.</desc>
    <defs></defs>
    <g id="Page-1" stroke="none" stroke-width="1" fill="none" fill-rule="evenodd">
        <g id="mastercard" fill-rule="nonzero">
            <path d="M66.3157895,20 C66.3157895,30.9473684 57.4736842,39.8947368 46.4210526,39.8947368 C35.4736842,39.8947368 26.5263158,30.9473684 26.5263158,20 C26.5263158,9.05263158 35.3684211,0.105263158 46.3157895,0.105263158 C57.4736842,0.105263158 66.3157895,9.05263158 66.3157895,20 Z" id="Shape" fill="#FFB600"></path>
            <path d="M46.4210526,0.105263158 C57.3684211,0.105263158 66.3157895,9.05263158 66.3157895,20 C66.3157895,30.9473684 57.4736842,39.8947368 46.4210526,39.8947368 C35.4736842,39.8947368 26.5263158,30.9473684 26.5263158,20" id="Shape" fill="#F7981D"></path>
            <path d="M46.4210526,0.105263158 C57.3684211,0.105263158 66.3157895,9.05263158 66.3157895,20 C66.3157895,30.9473684 57.4736842,39.8947368 46.4210526,39.8947368" id="Shape" fill="#FF8500"></path>
            <path d="M19.6842105,0.105263158 C8.84210526,0.210526316 0,9.05263158 0,20 C0,30.9473684 8.84210526,39.8947368 19.8947368,39.8947368 C25.0526316,39.8947368 29.6842105,37.8947368 33.2631579,34.7368421 C34,34.1052632 34.6315789,33.3684211 35.2631579,32.6315789 L31.1578947,32.6315789 C30.6315789,32 30.1052632,31.2631579 29.6842105,30.6315789 L36.7368421,30.6315789 C37.1578947,30 37.5789474,29.2631579 37.8947368,28.5263158 L28.5263158,28.5263158 C28.2105263,27.8947368 27.8947368,27.1578947 27.6842105,26.4210526 L38.6315789,26.4210526 C39.2631579,24.4210526 39.6842105,22.3157895 39.6842105,20.1052632 C39.6842105,18.6315789 39.4736842,17.2631579 39.2631579,15.8947368 L27.0526316,15.8947368 C27.1578947,15.1578947 27.3684211,14.5263158 27.5789474,13.7894737 L38.5263158,13.7894737 C38.3157895,13.0526316 38,12.3157895 37.6842105,11.6842105 L28.4210526,11.6842105 C28.7368421,10.9473684 29.1578947,10.3157895 29.5789474,9.57894737 L36.6315789,9.57894737 C36.2105263,8.84210526 35.6842105,8.10526316 35.0526316,7.47368421 L31.1578947,7.47368421 C31.7894737,6.73684211 32.4210526,6.10526316 33.1578947,5.47368421 C29.6842105,2.21052632 24.9473684,0.315789474 19.7894737,0.315789474 C19.7894737,0.105263158 19.7894737,0.105263158 19.6842105,0.105263158 Z" id="Shape" fill="#FF5050"></path>
            <path d="M0,20 C0,30.9473684 8.84210526,39.8947368 19.8947368,39.8947368 C25.0526316,39.8947368 29.6842105,37.8947368 33.2631579,34.7368421 C34,34.1052632 34.6315789,33.3684211 35.2631579,32.6315789 L31.1578947,32.6315789 C30.6315789,32 30.1052632,31.2631579 29.6842105,30.6315789 L36.7368421,30.6315789 C37.1578947,30 37.5789474,29.2631579 37.8947368,28.5263158 L28.5263158,28.5263158 C28.2105263,27.8947368 27.8947368,27.1578947 27.6842105,26.4210526 L38.6315789,26.4210526 C39.2631579,24.4210526 39.6842105,22.3157895 39.6842105,20.1052632 C39.6842105,18.6315789 39.4736842,17.2631579 39.2631579,15.8947368 L27.0526316,15.8947368 C27.1578947,15.1578947 27.3684211,14.5263158 27.5789474,13.7894737 L38.5263158,13.7894737 C38.3157895,13.0526316 38,12.3157895 37.6842105,11.6842105 L28.4210526,11.6842105 C28.7368421,10.9473684 29.1578947,10.3157895 29.5789474,9.57894737 L36.6315789,9.57894737 C36.2105263,8.84210526 35.6842105,8.10526316 35.0526316,7.47368421 L31.1578947,7.47368421 C31.7894737,6.73684211 32.4210526,6.10526316 33.1578947,5.47368421 C29.6842105,2.21052632 24.9473684,0.315789474 19.7894737,0.315789474 L19.6842105,0.315789474" id="Shape" fill="#E52836"></path>
            <path d="M19.8947368,39.8947368 C25.0526316,39.8947368 29.6842105,37.8947368 33.2631579,34.7368421 C34,34.1052632 34.6315789,33.3684211 35.2631579,32.6315789 L31.1578947,32.6315789 C30.6315789,32 30.1052632,31.2631579 29.6842105,30.6315789 L36.7368421,30.6315789 C37.1578947,30 37.5789474,29.2631579 37.8947368,28.5263158 L28.5263158,28.5263158 C28.2105263,27.8947368 27.8947368,27.1578947 27.6842105,26.4210526 L38.6315789,26.4210526 C39.2631579,24.4210526 39.6842105,22.3157895 39.6842105,20.1052632 C39.6842105,18.6315789 39.4736842,17.2631579 39.2631579,15.8947368 L27.0526316,15.8947368 C27.1578947,15.1578947 27.3684211,14.5263158 27.5789474,13.7894737 L38.5263158,13.7894737 C38.3157895,13.0526316 38,12.3157895 37.6842105,11.6842105 L28.4210526,11.6842105 C28.7368421,10.9473684 29.1578947,10.3157895 29.5789474,9.57894737 L36.6315789,9.57894737 C36.2105263,8.84210526 35.6842105,8.10526316 35.0526316,7.47368421 L31.1578947,7.47368421 C31.7894737,6.73684211 32.4210526,6.10526316 33.1578947,5.47368421 C29.6842105,2.21052632 24.9473684,0.315789474 19.7894737,0.315789474 L19.6842105,0.315789474" id="Shape" fill="#CB2026"></path>
            <g id="Group" transform="translate(1.842105, 14.736842)" fill="#FFFFFF">
                <path d="M25.1052632,10.3157895 L25.4210526,8.52631579 C25.3157895,8.52631579 25.1052632,8.63157895 24.8947368,8.63157895 C24.1578947,8.63157895 24.0526316,8.21052632 24.1578947,8 L24.7894737,4.31578947 L25.9473684,4.31578947 L26.2631579,2.31578947 L25.2105263,2.31578947 L25.4210526,1.05263158 L23.3157895,1.05263158 C23.3157895,1.05263158 22.0526316,8 22.0526316,8.84210526 C22.0526316,10.1052632 22.7894737,10.6315789 23.7368421,10.6315789 C24.3684211,10.6315789 24.8947368,10.4210526 25.1052632,10.3157895 Z" id="Shape"></path>
                <path d="M25.8421053,6.94736842 C25.8421053,9.89473684 27.8421053,10.6315789 29.5263158,10.6315789 C31.1052632,10.6315789 31.7368421,10.3157895 31.7368421,10.3157895 L32.1578947,8.31578947 C32.1578947,8.31578947 31,8.84210526 29.9473684,8.84210526 C27.6315789,8.84210526 28.0526316,7.15789474 28.0526316,7.15789474 L32.3684211,7.15789474 C32.3684211,7.15789474 32.6842105,5.78947368 32.6842105,5.26315789 C32.6842105,3.89473684 31.9473684,2.21052632 29.6315789,2.21052632 C27.4210526,2 25.8421053,4.31578947 25.8421053,6.94736842 Z M29.5263158,3.89473684 C30.6842105,3.89473684 30.4736842,5.26315789 30.4736842,5.36842105 L28.1578947,5.36842105 C28.1578947,5.26315789 28.3684211,3.89473684 29.5263158,3.89473684 Z" id="Shape"></path>
                <path d="M42.8947368,10.3157895 L43.3157895,8 C43.3157895,8 42.2631579,8.52631579 41.5263158,8.52631579 C40.0526316,8.52631579 39.4210526,7.36842105 39.4210526,6.10526316 C39.4210526,3.57894737 40.6842105,2.21052632 42.1578947,2.21052632 C43.2105263,2.21052632 44.0526316,2.84210526 44.0526316,2.84210526 L44.3684211,0.631578947 C44.3684211,0.631578947 43.1052632,0.105263158 41.9473684,0.105263158 C39.5263158,0.105263158 37.1052632,2.21052632 37.1052632,6.21052632 C37.1052632,8.84210526 38.3684211,10.6315789 40.8947368,10.6315789 C41.7368421,10.6315789 42.8947368,10.3157895 42.8947368,10.3157895 Z" id="Shape"></path>
                <path d="M13.5263158,2 C12.0526316,2 11,2.42105263 11,2.42105263 L10.6842105,4.21052632 C10.6842105,4.21052632 11.6315789,3.78947368 13,3.78947368 C13.7368421,3.78947368 14.3684211,3.89473684 14.3684211,4.52631579 C14.3684211,4.94736842 14.2631579,5.05263158 14.2631579,5.05263158 C14.2631579,5.05263158 13.6315789,5.05263158 13.3157895,5.05263158 C11.5263158,5.05263158 9.52631579,5.78947368 9.52631579,8.21052632 C9.52631579,10.1052632 10.7894737,10.5263158 11.5263158,10.5263158 C13,10.5263158 13.6315789,9.57894737 13.7368421,9.57894737 L13.6315789,10.4210526 L15.5263158,10.4210526 L16.3684211,4.63157895 C16.3684211,2.10526316 14.2631579,2 13.5263158,2 Z M13.9473684,6.73684211 C13.9473684,7.05263158 13.7368421,8.73684211 12.4736842,8.73684211 C11.8421053,8.73684211 11.6315789,8.21052632 11.6315789,7.89473684 C11.6315789,7.36842105 11.9473684,6.63157895 13.5263158,6.63157895 C13.8421053,6.73684211 13.9473684,6.73684211 13.9473684,6.73684211 Z" id="Shape"></path>
                <path d="M18.3684211,10.5263158 C18.8947368,10.5263158 21.5263158,10.6315789 21.5263158,7.78947368 C21.5263158,5.15789474 19,5.68421053 19,4.63157895 C19,4.10526316 19.4210526,3.89473684 20.1578947,3.89473684 C20.4736842,3.89473684 21.6315789,4 21.6315789,4 L21.9473684,2.10526316 C21.9473684,2.10526316 21.2105263,1.89473684 19.9473684,1.89473684 C18.3684211,1.89473684 16.7894737,2.52631579 16.7894737,4.63157895 C16.7894737,7.05263158 19.4210526,6.84210526 19.4210526,7.78947368 C19.4210526,8.42105263 18.6842105,8.52631579 18.1578947,8.52631579 C17.2105263,8.52631579 16.2631579,8.21052632 16.2631579,8.21052632 L15.9473684,10.1052632 C16.0526316,10.3157895 16.5789474,10.5263158 18.3684211,10.5263158 Z" id="Shape"></path>
                <path d="M60.3684211,0.315789474 L59.9473684,3.15789474 C59.9473684,3.15789474 59.1052632,2.10526316 57.9473684,2.10526316 C56.0526316,2.10526316 54.3684211,4.42105263 54.3684211,7.15789474 C54.3684211,8.84210526 55.2105263,10.6315789 57,10.6315789 C58.2631579,10.6315789 59,9.78947368 59,9.78947368 L58.8947368,10.5263158 L61,10.5263158 L62.5789474,0.421052632 L60.3684211,0.315789474 Z M59.4210526,5.89473684 C59.4210526,7.05263158 58.8947368,8.52631579 57.7368421,8.52631579 C57,8.52631579 56.5789474,7.89473684 56.5789474,6.84210526 C56.5789474,5.15789474 57.3157895,4.10526316 58.2631579,4.10526316 C59,4.10526316 59.4210526,4.63157895 59.4210526,5.89473684 Z" id="Shape"></path>
                <polygon id="Shape" points="2.05263158 10.4210526 3.31578947 2.84210526 3.52631579 10.4210526 5 10.4210526 7.73684211 2.84210526 6.57894737 10.4210526 8.78947368 10.4210526 10.4736842 0.315789474 7 0.315789474 4.89473684 6.52631579 4.78947368 0.315789474 1.73684211 0.315789474 0.0526315789 10.4210526"></polygon>
                <path d="M34.6842105,10.4210526 C35.3157895,6.94736842 35.4210526,4.10526316 36.8947368,4.63157895 C37.1052632,3.26315789 37.4210526,2.73684211 37.6315789,2.21052632 C37.6315789,2.21052632 37.5263158,2.21052632 37.2105263,2.21052632 C36.2631579,2.21052632 35.5263158,3.47368421 35.5263158,3.47368421 L35.7368421,2.31578947 L33.7368421,2.31578947 L32.3684211,10.5263158 L34.6842105,10.5263158 L34.6842105,10.4210526 Z" id="Shape"></path>
                <path d="M47.7368421,2 C46.2631579,2 45.2105263,2.42105263 45.2105263,2.42105263 L44.8947368,4.21052632 C44.8947368,4.21052632 45.8421053,3.78947368 47.2105263,3.78947368 C47.9473684,3.78947368 48.5789474,3.89473684 48.5789474,4.52631579 C48.5789474,4.94736842 48.4736842,5.05263158 48.4736842,5.05263158 C48.4736842,5.05263158 47.8421053,5.05263158 47.5263158,5.05263158 C45.7368421,5.05263158 43.7368421,5.78947368 43.7368421,8.21052632 C43.7368421,10.1052632 45,10.5263158 45.7368421,10.5263158 C47.2105263,10.5263158 47.8421053,9.57894737 47.9473684,9.57894737 L47.8421053,10.4210526 L49.7368421,10.4210526 L50.5789474,4.63157895 C50.6842105,2.10526316 48.4736842,2 47.7368421,2 Z M48.2631579,6.73684211 C48.2631579,7.05263158 48.0526316,8.73684211 46.7894737,8.73684211 C46.1578947,8.73684211 45.9473684,8.21052632 45.9473684,7.89473684 C45.9473684,7.36842105 46.2631579,6.63157895 47.8421053,6.63157895 C48.1578947,6.73684211 48.1578947,6.73684211 48.2631579,6.73684211 Z" id="Shape"></path>
                <path d="M52.3684211,10.4210526 C53,6.94736842 53.1052632,4.10526316 54.5789474,4.63157895 C54.7894737,3.26315789 55.1052632,2.73684211 55.3157895,2.21052632 C55.3157895,2.21052632 55.2105263,2.21052632 54.8947368,2.21052632 C53.9473684,2.21052632 53.2105263,3.47368421 53.2105263,3.47368421 L53.4210526,2.31578947 L51.4210526,2.31578947 L50.0526316,10.5263158 L52.3684211,10.5263158 L52.3684211,10.4210526 Z" id="Shape"></path>
            </g>
            <g id="Group" transform="translate(1.842105, 14.736842)" fill="#DCE5E5">
                <path d="M21.8421053,8.84210526 C21.8421053,10.1052632 22.5789474,10.6315789 23.5263158,10.6315789 C24.2631579,10.6315789 24.8947368,10.4210526 25.1052632,10.3157895 L25.4210526,8.52631579 C25.3157895,8.52631579 25.1052632,8.63157895 24.8947368,8.63157895 C24.1578947,8.63157895 24.0526316,8.21052632 24.1578947,8 L24.7894737,4.31578947 L25.9473684,4.31578947 L26.2631579,2.31578947 L25.2105263,2.31578947 L25.4210526,1.05263158" id="Shape"></path>
                <path d="M26.8947368,6.94736842 C26.8947368,9.89473684 27.8421053,10.6315789 29.5263158,10.6315789 C31.1052632,10.6315789 31.7368421,10.3157895 31.7368421,10.3157895 L32.1578947,8.31578947 C32.1578947,8.31578947 31,8.84210526 29.9473684,8.84210526 C27.6315789,8.84210526 28.0526316,7.15789474 28.0526316,7.15789474 L32.3684211,7.15789474 C32.3684211,7.15789474 32.6842105,5.78947368 32.6842105,5.26315789 C32.6842105,3.89473684 31.9473684,2.21052632 29.6315789,2.21052632 C27.4210526,2 26.8947368,4.31578947 26.8947368,6.94736842 Z M29.5263158,3.89473684 C30.6842105,3.89473684 30.8947368,5.26315789 30.8947368,5.36842105 L28.1578947,5.36842105 C28.1578947,5.26315789 28.3684211,3.89473684 29.5263158,3.89473684 Z" id="Shape"></path>
                <path d="M42.8947368,10.3157895 L43.3157895,8 C43.3157895,8 42.2631579,8.52631579 41.5263158,8.52631579 C40.0526316,8.52631579 39.4210526,7.36842105 39.4210526,6.10526316 C39.4210526,3.57894737 40.6842105,2.21052632 42.1578947,2.21052632 C43.2105263,2.21052632 44.0526316,2.84210526 44.0526316,2.84210526 L44.3684211,0.631578947 C44.3684211,0.631578947 43.1052632,0.105263158 41.9473684,0.105263158 C39.5263158,0.105263158 38.1578947,2.21052632 38.1578947,6.21052632 C38.1578947,8.84210526 38.3684211,10.6315789 40.8947368,10.6315789 C41.7368421,10.6315789 42.8947368,10.3157895 42.8947368,10.3157895 Z" id="Shape"></path>
                <path d="M10.6842105,4.31578947 C10.6842105,4.31578947 11.6315789,3.89473684 13,3.89473684 C13.7368421,3.89473684 14.3684211,4 14.3684211,4.63157895 C14.3684211,5.05263158 14.2631579,5.15789474 14.2631579,5.15789474 C14.2631579,5.15789474 13.6315789,5.15789474 13.3157895,5.15789474 C11.5263158,5.15789474 9.52631579,5.89473684 9.52631579,8.31578947 C9.52631579,10.2105263 10.7894737,10.6315789 11.5263158,10.6315789 C13,10.6315789 13.6315789,9.68421053 13.7368421,9.68421053 L13.6315789,10.5263158 L15.5263158,10.5263158 L16.3684211,4.73684211 C16.3684211,2.31578947 14.2631579,2.21052632 13.4210526,2.21052632 L10.6842105,4.31578947 Z M15,6.73684211 C15,7.05263158 13.7368421,8.73684211 12.4736842,8.73684211 C11.8421053,8.73684211 11.6315789,8.21052632 11.6315789,7.89473684 C11.6315789,7.36842105 11.9473684,6.63157895 13.5263158,6.63157895 C13.8421053,6.73684211 15,6.73684211 15,6.73684211 Z" id="Shape"></path>
                <path d="M16.0526316,10.3157895 C16.0526316,10.3157895 16.6842105,10.5263158 18.4736842,10.5263158 C19,10.5263158 21.6315789,10.6315789 21.6315789,7.78947368 C21.6315789,5.15789474 19.1052632,5.68421053 19.1052632,4.63157895 C19.1052632,4.10526316 19.5263158,3.89473684 20.2631579,3.89473684 C20.5789474,3.89473684 21.7368421,4 21.7368421,4 L22.0526316,2.10526316 C22.0526316,2.10526316 21.3157895,1.89473684 20.0526316,1.89473684 C18.4736842,1.89473684 17.9473684,2.52631579 17.9473684,4.63157895 C17.9473684,7.05263158 19.5263158,6.84210526 19.5263158,7.78947368 C19.5263158,8.42105263 18.7894737,8.52631579 18.2631579,8.52631579" id="Shape"></path>
                <path d="M59.9473684,3.15789474 C59.9473684,3.15789474 59.1052632,2.10526316 57.9473684,2.10526316 C56.0526316,2.10526316 55.4210526,4.42105263 55.4210526,7.15789474 C55.4210526,8.84210526 55.2105263,10.6315789 57,10.6315789 C58.2631579,10.6315789 59,9.78947368 59,9.78947368 L58.8947368,10.5263158 L61,10.5263158 L62.5789474,0.421052632 L59.9473684,3.15789474 Z M59.8421053,5.89473684 C59.8421053,7.05263158 58.8947368,8.52631579 57.7368421,8.52631579 C57,8.52631579 56.5789474,7.89473684 56.5789474,6.84210526 C56.5789474,5.15789474 57.3157895,4.10526316 58.2631579,4.10526316 C59,4.10526316 59.8421053,4.63157895 59.8421053,5.89473684 Z" id="Shape"></path>
                <polygon id="Shape" points="2.05263158 10.4210526 3.31578947 2.84210526 3.52631579 10.4210526 5 10.4210526 7.73684211 2.84210526 6.57894737 10.4210526 8.78947368 10.4210526 10.4736842 0.315789474 7.84210526 0.315789474 4.89473684 6.52631579 4.78947368 0.315789474 3.63157895 0.315789474 0.0526315789 10.4210526"></polygon>
                <path d="M32.4736842,10.4210526 L34.6842105,10.4210526 C35.3157895,6.94736842 35.4210526,4.10526316 36.8947368,4.63157895 C37.1052632,3.26315789 37.4210526,2.73684211 37.6315789,2.21052632 C37.6315789,2.21052632 37.5263158,2.21052632 37.2105263,2.21052632 C36.2631579,2.21052632 35.5263158,3.47368421 35.5263158,3.47368421 L35.7368421,2.31578947" id="Shape"></path>
                <path d="M44.8947368,4.31578947 C44.8947368,4.31578947 45.8421053,3.89473684 47.2105263,3.89473684 C47.9473684,3.89473684 48.5789474,4 48.5789474,4.63157895 C48.5789474,5.05263158 48.4736842,5.15789474 48.4736842,5.15789474 C48.4736842,5.15789474 47.8421053,5.15789474 47.5263158,5.15789474 C45.7368421,5.15789474 43.7368421,5.89473684 43.7368421,8.31578947 C43.7368421,10.2105263 45,10.6315789 45.7368421,10.6315789 C47.2105263,10.6315789 47.8421053,9.68421053 47.9473684,9.68421053 L47.8421053,10.5263158 L49.7368421,10.5263158 L50.5789474,4.73684211 C50.5789474,2.31578947 48.4736842,2.21052632 47.6315789,2.21052632 L44.8947368,4.31578947 Z M49.2105263,6.73684211 C49.2105263,7.05263158 47.9473684,8.73684211 46.6842105,8.73684211 C46.0526316,8.73684211 45.8421053,8.21052632 45.8421053,7.89473684 C45.8421053,7.36842105 46.1578947,6.63157895 47.7368421,6.63157895 C48.1578947,6.73684211 49.2105263,6.73684211 49.2105263,6.73684211 Z" id="Shape"></path>
                <path d="M50.1578947,10.4210526 L52.3684211,10.4210526 C53,6.94736842 53.1052632,4.10526316 54.5789474,4.63157895 C54.7894737,3.26315789 55.1052632,2.73684211 55.3157895,2.21052632 C55.3157895,2.21052632 55.2105263,2.21052632 54.8947368,2.21052632 C53.9473684,2.21052632 53.2105263,3.47368421 53.2105263,3.47368421 L53.4210526,2.31578947" id="Shape"></path>
            </g>
        </g>
    </g>
</svg>