<svg xmlns="http://www.w3.org/2000/svg" width="75" height="80" viewBox="0 0 75 80">
    <defs>
        <linearGradient id="a" x1="73.406%" x2="0%" y1="25.44%" y2="95.527%">
            <stop offset="0%" stop-color="#FFB80A"/>
            <stop offset="100%" stop-color="#F01446"/>
        </linearGradient>
        <linearGradient id="b" x1="58.283%" x2="32.306%" y1="23.027%" y2="100%">
            <stop offset="0%" stop-color="#FFB80A"/>
            <stop offset="100%" stop-color="#F01446"/>
        </linearGradient>
        <linearGradient id="c" x1="58.034%" x2="32.837%" y1="23.027%" y2="100%">
            <stop offset="0%" stop-color="#FFB80A"/>
            <stop offset="100%" stop-color="#F01446"/>
        </linearGradient>
        <linearGradient id="d" x1="73.406%" x2="0%" y1="31.838%" y2="83.668%">
            <stop offset="0%" stop-color="#FFB80A"/>
            <stop offset="100%" stop-color="#F01446"/>
        </linearGradient>
    </defs>
    <g fill="none" fill-rule="evenodd">
        <path fill="url(#a)" d="M73.608 58.29c-6.54-3.179-11.291-12.79-11.338-12.888-.018-.037-.043-.068-.064-.103-.16-.34-.31-.678-.489-1.019-3.586-6.828-10.096-12.063-17.88-14.395-1.518-.964-16.012-10.288-20.041-17.128C22.65 10.81 21.32 9.7 19.844 9.453a3.628 3.628 0 0 0-2.502.494 4.717 4.717 0 0 0-.2-.134 1.344 1.344 0 0 0-1.677.22c-2.222 2.344-4.15 6.24-5.084 8.306-1.863-2.352-3.773-3.673-5.695-3.897-2.119-.243-3.39.907-3.53 1.039-.38.361-.511.91-.338 1.403 1.508 4.302 5.387 11.375 6.17 12.785-.48 1.528-.916 2.871-1.214 3.775a5.848 5.848 0 0 0 .592 4.93c2.36 3.789 6.313 9.263 7.147 10.413.765 3.41 1.699 7.036 2.835 10.247.652 1.841 2.226 2.792 3.614 3.632.715.432 1.39.84 1.801 1.294.006.007.014.011.02.018a4.307 4.307 0 0 0 2.173 1.542c3.845 1.194 8.208 2.156 12.968 2.86 4.536.672 8.628 2.336 11.833 4.81 2.157 1.667 3.962 3.631 5.365 5.84a1.339 1.339 0 0 0 1.847.414 1.33 1.33 0 0 0 .416-1.84c-1.57-2.47-3.583-4.664-5.987-6.52a24.509 24.509 0 0 0-2.72-1.816c.515-.089.959-.18 1.285-.256a1.334 1.334 0 0 0 1.004-1.6 1.343 1.343 0 0 0-1.607-.999c-1.008.232-4.491.93-7.038.191-.016-.004-.032-.005-.047-.008a31.549 31.549 0 0 0-3.957-.853c-4.624-.685-8.852-1.616-12.565-2.768a1.668 1.668 0 0 1-1.091-1.115c-1.013-3.31-3.414-11.728-3.83-18.382-.02-.32.13-.639.406-.85 1.722-1.326 6.079-4.596 9.314-6.317a.677.677 0 0 1 .36-.074c1.478.075 6.09.392 9.296 1.539-.87 1.247-3.146 3.13-8.81 2.441a1.354 1.354 0 0 0-1.392.797c-.677 1.567-1.958 4.06-2.687 4.695a1.332 1.332 0 0 0-.237 1.734c.02.03 1.955 3.031 1.064 5.512a1.331 1.331 0 0 0 .81 1.704 1.343 1.343 0 0 0 1.712-.807 6.44 6.44 0 0 0 .276-1.04c.622-.21 1.931-.386 3.996.565.157.685.349 2.014-.122 3.308a1.332 1.332 0 0 0 1.26 1.787 1.34 1.34 0 0 0 1.26-.88c.586-1.614.498-3.213.316-4.288 2.03-1.298 9.74-5.648 18.254-2.994a1.333 1.333 0 1 0 .8-2.545c-2.673-.833-5.246-1.059-7.63-.936-3.919-1.122-5.967-4.239-6.006-4.3a1.344 1.344 0 0 0-1.844-.42 1.331 1.331 0 0 0-.426 1.837c.072.115 1.265 1.972 3.605 3.584-3.917.978-6.88 2.671-8.171 3.505-2.29-1.092-4.076-1.163-5.32-.942a11.752 11.752 0 0 0-1.082-3.21c.876-1.154 1.727-2.845 2.229-3.919 9.684.783 11.192-5.311 11.252-5.58a1.33 1.33 0 0 0-.704-1.485c-1.197-.6-2.664-1.046-4.165-1.38-3.402-3.572-6.892-4.626-7.038-4.668a1.367 1.367 0 0 0-.578-.04c-1.022.153-2.028.34-3.014.545-1.612-1.899-2.114-3.216-2.116-3.221a1.338 1.338 0 0 0-.696-.772c-2.889-1.354-4.113-3.181-4.556-4.045 1.416-2.542 1.882-4.98 1.362-7.257a8.31 8.31 0 0 0-1.338-2.96c.39.09 1.115.48 2.013 2.005 4.56 7.741 20.394 17.704 21.066 18.125.01.006.021.008.031.014.094.055.194.104.304.136 7.177 2.099 13.176 6.886 16.458 13.135 1.939 3.693 2.594 7.4 1.752 9.918-.513 1.536-2.475 4.437-5.775 6.136a1.33 1.33 0 0 0-.574 1.797 1.338 1.338 0 0 0 1.805.571c3.754-1.933 6.305-5.327 7.085-7.662.302-.902.451-1.899.48-2.952 2.137 2.79 4.981 5.742 8.315 7.363a1.34 1.34 0 0 0 1.791-.613 1.33 1.33 0 0 0-.615-1.783zM3.76 17.105c.178-.03.382-.039.613-.014.856.1 2.639.809 4.984 4.389-.348 1.398-.8 3.001-1.272 4.599-1.295-2.434-3.195-6.14-4.325-8.974zm4.88 19.864a3.195 3.195 0 0 1-.32-2.695c1.137-3.46 3.158-9.806 3.992-13.664.295-.711 2.117-4.992 4.289-7.793.585.595 1.302 1.547 1.596 2.836.42 1.84-.109 3.923-1.573 6.19a1.325 1.325 0 0 0-.205.582c-.007.06-.645 5.983-2.235 8.811-.223.398-.228.88-.011 1.281l.8 1.484a70.55 70.55 0 0 0-.875.36c-1.869.785-2.94 2.791-2.546 4.768.124.625.257 1.314.4 2.054l.21 1.074c-1.228-1.77-2.531-3.699-3.521-5.288zm21.263-4.47c.418.157 1.314.543 2.415 1.24a53.219 53.219 0 0 0-2.269-.164 3.331 3.331 0 0 0-1.76.384c-3.292 1.752-7.484 4.862-9.69 6.56a3.66 3.66 0 0 0-1.442 3.127c.338 5.402 1.908 11.838 3.078 16.032-.633-.442-1.146-.92-1.362-1.53-2.002-5.658-3.38-12.766-4.29-17.47-.145-.746-.28-1.438-.404-2.067a1.596 1.596 0 0 1 .96-1.794c2.864-1.203 8.55-3.344 14.764-4.319zm-7.508-3.951c.245.524.721 1.394 1.534 2.483a72.333 72.333 0 0 0-6.437 2.006l-.629-1.167c.855-1.824 1.421-4.24 1.768-6.137.864.943 2.077 1.955 3.764 2.815z"/>
        <path fill="url(#b)" d="M19.24 7.038a1.34 1.34 0 0 0 1.703-.826l1.53-4.409a1.332 1.332 0 0 0-.83-1.695 1.342 1.342 0 0 0-1.702.825l-1.53 4.41c-.242.695.13 1.455.829 1.695z"/>
        <path fill="url(#c)" d="M13.432 7.694a1.34 1.34 0 0 0 1.727.775c.692-.26 1.04-1.03.778-1.719l-2.073-5.444A1.34 1.34 0 0 0 12.137.53a1.331 1.331 0 0 0-.778 1.719l2.073 5.444z"/>
        <path fill="url(#d)" d="M4.114 6.739l5.58 4.11a1.339 1.339 0 0 0 1.873-.279 1.33 1.33 0 0 0-.28-1.864l-5.58-4.111a1.345 1.345 0 0 0-1.873.278 1.33 1.33 0 0 0 .28 1.866z"/>
    </g>
</svg>
