<svg xmlns="http://www.w3.org/2000/svg" width="52" height="80" viewBox="0 0 52 80">
    <defs>
        <linearGradient id="a" x1="59.681%" x2="29.32%" y1="23.027%" y2="100%">
            <stop offset="0%" stop-color="#FFB80A"/>
            <stop offset="100%" stop-color="#F01446"/>
        </linearGradient>
    </defs>
    <path fill="url(#a)" fill-rule="evenodd" d="M140.891 55.798a.889.889 0 0 1-.6-.234c-2.635-2.414-6.49-4.793-9.893-2.416a.889.889 0 0 1-1.254-1.214c1.375-2.111 2.726-4.292 4.034-6.4.792-1.278 1.583-2.555 2.383-3.824a.89.89 0 0 1 1.178-.306c.85.464 1.69.943 2.532 1.422.671.381 1.342.762 2.018 1.137a.888.888 0 0 1 .457.778l-.004 2.544c-.006 2.495-.012 5.075.037 7.607a.89.89 0 0 1-.888.906zm-7.458-5.407c2.055 0 4.272.872 6.541 2.593a470.483 470.483 0 0 1-.01-5.702l.004-2.019a300.38 300.38 0 0 1-1.575-.89 232.55 232.55 0 0 0-1.775-1.002c-.647 1.03-1.288 2.065-1.93 3.1a550.273 550.273 0 0 1-2.516 4.035 6.827 6.827 0 0 1 1.26-.115zm35.126 5.73a.888.888 0 0 1-.889-.907c.05-2.532.043-5.112.037-7.607l-.004-2.544a.89.89 0 0 1 .458-.778c.678-.376 1.352-.759 2.026-1.142.84-.477 1.678-.954 2.523-1.416a.888.888 0 0 1 1.179.305c.8 1.268 1.59 2.545 2.382 3.822 1.307 2.11 2.658 4.29 4.034 6.403a.89.89 0 0 1-1.254 1.214c-3.403-2.378-7.258 0-9.892 2.416a.882.882 0 0 1-.6.234zm.923-10.535l.004 2.018c.004 1.87.009 3.788-.01 5.703 2.74-2.079 5.406-2.919 7.802-2.48-.854-1.352-1.694-2.707-2.517-4.035a761.097 761.097 0 0 0-1.928-3.1c-.59.33-1.178.664-1.767.999-.527.298-1.054.598-1.584.895zM164.856 80a.888.888 0 0 1-.657-.29l-9.474-10.393-9.475 10.393a.888.888 0 0 1-1.545-.599V45.635a.89.89 0 0 1 1.225-.824c.053.022 5.349 2.158 9.795 2.158 4.351 0 9.747-2.138 9.8-2.16a.888.888 0 0 1 1.219.825v33.477a.89.89 0 0 1-.888.889zm-10.13-12.89c.249 0 .487.105.656.289l8.586 9.418V46.908c-1.93.667-5.81 1.839-9.243 1.839-3.495 0-7.328-1.164-9.242-1.833v29.902l8.586-9.418a.888.888 0 0 1 .656-.289zm8.585-30.91a.886.886 0 0 1-.414-.101l-8.172-4.296-8.171 4.296a.889.889 0 0 1-1.29-.937l1.56-9.1-6.61-6.444a.89.89 0 0 1 .492-1.517l9.136-1.327 4.086-8.278c.3-.607 1.295-.607 1.594 0l4.086 8.278 9.136 1.327a.89.89 0 0 1 .493 1.517l-6.612 6.444 1.561 9.1a.89.89 0 0 1-.875 1.039zm-8.586-6.29a.88.88 0 0 1 .413.101l6.991 3.676-1.335-7.785a.89.89 0 0 1 .256-.786l5.656-5.513-7.816-1.135a.889.889 0 0 1-.669-.487l-3.496-7.083-3.495 7.082a.889.889 0 0 1-.67.487l-7.815 1.135 5.656 5.513a.893.893 0 0 1 .256.786l-1.335 7.785 6.99-3.675a.884.884 0 0 1 .413-.102zm0 14.29c-12.186 0-22.1-9.913-22.1-22.1 0-12.186 9.914-22.1 22.1-22.1 12.186 0 22.1 9.914 22.1 22.1 0 12.187-9.914 22.1-22.1 22.1zm0-42.422c-11.205 0-20.323 9.116-20.323 20.322 0 11.207 9.118 20.323 20.323 20.323s20.323-9.116 20.323-20.323c0-11.206-9.118-20.322-20.323-20.322z" transform="translate(-129)"/>
</svg>
